<svg width="128" height="128" viewBox="0 0 128 128" fill="none" xmlns="http://www.w3.org/2000/svg">
<rect x="64" y="1.99988" width="28" height="28" rx="4" transform="rotate(45 64 1.99988)" fill="currentColor" fill-opacity="0.25" stroke="currentColor" stroke-width="2"/>
<path d="M2 55.9999C2 53.7907 3.79086 51.9999 6 51.9999H34C36.2091 51.9999 38 53.7907 38 55.9999V73.9999C38 76.209 36.2091 77.9999 34 77.9999H6C3.79086 77.9999 2 76.209 2 73.9999V55.9999Z" fill="currentColor" fill-opacity="0.25" stroke="currentColor" stroke-width="2"/>
<circle cx="63.5" cy="108" r="17" fill="currentColor" fill-opacity="0.25" stroke="currentColor" stroke-width="2"/>
<path d="M56.5 108.5L61 113L70 104" stroke="currentColor" stroke-width="2" stroke-linecap="round" stroke-linejoin="round"/>
<path d="M88 21.9999L104 21.9999C106.209 21.9999 108 23.7907 108 25.9999V46.9999M104 42.9999L108 46.9999L112 42.9999" stroke="currentColor" stroke-width="2" stroke-linecap="round" stroke-linejoin="round"/>
<path d="M108 82.9999L108 104C108 106.209 106.209 108 104 108L86 108M90 104L86 108L90 112" stroke="currentColor" stroke-width="2" stroke-linecap="round" stroke-linejoin="round"/>
<path d="M126 55.9999C126 53.7907 124.209 51.9999 122 51.9999H94C91.7909 51.9999 90 53.7907 90 55.9999V73.9999C90 76.209 91.7909 77.9999 94 77.9999H122C124.209 77.9999 126 76.209 126 73.9999V55.9999Z" fill="currentColor" fill-opacity="0.25" stroke="currentColor" stroke-width="2"/>
<path d="M40 21.9999L24 21.9999C21.7909 21.9999 20 23.7907 20 25.9999L20 46.9999M24 42.9999L20 46.9999L16 42.9999" stroke="currentColor" stroke-width="2" stroke-linecap="round" stroke-linejoin="round"/>
<path d="M20 82.9999L20 104C20 106.209 21.7909 108 24 108L42 108M38 104L42 108L38 112" stroke="currentColor" stroke-width="2" stroke-linecap="round" stroke-linejoin="round"/>
</svg>
