<svg width="128" height="128" viewBox="0 0 128 128" fill="none" xmlns="http://www.w3.org/2000/svg">
<path d="M48 33C48 38.5228 43.5228 43 38 43C32.4772 43 28 38.5228 28 33C28 27.4772 32.4772 23 38 23C43.5228 23 48 27.4772 48 33Z" fill="currentColor"/>
<circle cx="24" cy="84" r="10" fill="currentColor"/>
<circle cx="63" cy="70" r="10" fill="currentColor"/>
<circle cx="93" cy="98" r="10" fill="currentColor"/>
<path d="M115 30C115 35.5228 110.523 40 105 40C99.4772 40 95 35.5228 95 30C95 24.4772 99.4772 20 105 20C110.523 20 115 24.4772 115 30Z" fill="currentColor"/>
<path d="M63 70L105 30L38 33L24 84L93 98L63 70ZM38 33L63 70M24 84L63 70" stroke="currentColor" stroke-opacity="0.5" stroke-width="2"/>
</svg>
