<svg width="128" height="128" viewBox="0 0 128 128" fill="none" xmlns="http://www.w3.org/2000/svg">
<rect x="1" y="1" width="126" height="126" rx="19" fill="currentColor" fill-opacity="0.25" stroke="currentColor" stroke-width="2"/>
<path d="M33.7412 63.9993C33.7412 72.3662 34.9405 79.9843 36.9111 85.5461C37.8948 88.3224 39.0896 90.6404 40.4658 92.2834C40.5702 92.408 40.6776 92.5289 40.7852 92.6467C26.7342 90.4723 16 78.4659 16 63.9993C16 49.5326 26.7342 37.5252 40.7852 35.3508C40.6774 35.4689 40.5703 35.5903 40.4658 35.7151C39.0896 37.3581 37.8948 39.6762 36.9111 42.4524C34.9405 48.0142 33.7412 55.6323 33.7412 63.9993ZM35.7412 63.9993C35.7412 55.798 36.9204 48.4163 38.7969 43.1204C39.7366 40.4681 40.8321 38.3924 41.999 36.9993C43.1704 35.601 44.3143 34.9994 45.3701 34.9993C46.426 34.9993 47.5698 35.6009 48.7412 36.9993C49.9082 38.3924 51.0045 40.468 51.9443 43.1204C53.8207 48.4163 55 55.7981 55 63.9993C55 72.2005 53.8207 79.5822 51.9443 84.8782C51.0045 87.5306 49.9082 89.6062 48.7412 90.9993C47.5698 92.3977 46.426 92.9993 45.3701 92.9993C44.3143 92.9992 43.1704 92.3976 41.999 90.9993C40.8321 89.6062 39.7366 87.5304 38.7969 84.8782C36.9204 79.5822 35.7412 72.2005 35.7412 63.9993Z" fill="currentColor" fill-opacity="0.25" stroke="currentColor" stroke-width="2"/>
<path d="M88.3701 34.9993C104.17 34.9993 117 47.9713 117 63.9993L116.99 64.7483C116.598 80.4295 103.923 92.9993 88.3701 92.9993C87.3606 92.9992 86.2528 92.4092 85.1084 91.009C83.97 89.6161 82.8998 87.5399 81.9824 84.886C80.1509 79.5876 79 72.2029 79 63.9993C79 55.7957 80.1509 48.411 81.9824 43.1125C82.8998 40.4586 83.97 38.3824 85.1084 36.9895C86.2528 35.5894 87.3606 34.9994 88.3701 34.9993Z" fill="currentColor" fill-opacity="0.25" stroke="currentColor" stroke-width="2"/>
<path d="M45 75.9993H68.5294C69.3416 75.9993 70 75.3277 70 74.4993C70 73.6708 69.3416 72.9993 68.5294 72.9993H45M45 54.9993H68.5294C69.3416 54.9993 70 54.3277 70 53.4993C70 52.6708 69.3416 51.9993 68.5294 51.9993H45" stroke="currentColor" stroke-width="2"/>
<path d="M115 61.9993C113.895 61.9993 113 62.8947 113 63.9993C113 65.1038 113.895 65.9993 115 65.9993L115 63.9993L115 61.9993ZM125 65.9993L127 65.9993L127 61.9993L125 61.9993L125 63.9993L125 65.9993ZM115 63.9993L115 65.9993L125 65.9993L125 63.9993L125 61.9993L115 61.9993L115 63.9993Z" fill="currentColor"/>
<path d="M15 65.9993L17 65.9993L17 61.9993L15 61.9993L15 63.9993L15 65.9993ZM2 63.9993L2 65.9993L15 65.9993L15 63.9993L15 61.9993L2 61.9993L2 63.9993Z" fill="currentColor"/>
</svg>
