<svg width="128" height="128" viewBox="0 0 128 128" fill="none" xmlns="http://www.w3.org/2000/svg">
<path d="M49.0891 23.6733C49.0891 30.6725 43.4151 36.3465 36.4158 36.3465C29.4166 36.3465 23.7426 30.6725 23.7426 23.6733C23.7426 16.674 29.4166 11 36.4158 11C43.4151 11 49.0891 16.674 49.0891 23.6733Z" fill="#7AA2F7"/>
<circle cx="18.6733" cy="88.3069" r="12.6733" fill="#7AA2F7"/>
<circle cx="69.6733" cy="64.8714" r="12.6733" fill="#7AA2F7"/>
<circle cx="91.6733" cy="103.871" r="12.6733" fill="#7AA2F7"/>
<path d="M121.347 35.8714C121.347 42.8706 115.673 48.5447 108.673 48.5447C101.674 48.5447 96 42.8706 96 35.8714C96 28.8721 101.674 23.1981 108.673 23.1981C115.673 23.1981 121.347 28.8721 121.347 35.8714Z" fill="#7AA2F7"/>
<path d="M69.5 65.1981L108.5 36.1981L36.4158 23.6733L18.6733 88.307L91.5 104.198L69.5 65.1981ZM36.4158 23.6733L69.5 65.1981" stroke="#7AA2F7" stroke-opacity="0.5" stroke-width="2"/>
</svg>
