<svg width="128" height="128" viewBox="0 0 128 128" fill="none" xmlns="http://www.w3.org/2000/svg">
<g clip-path="url(#clip0_4_66)">
<rect x="1" y="1" width="126" height="126" rx="19" fill="#6AAE6F" fill-opacity="0.25" stroke="#6AAE6F" stroke-width="2"/>
<path d="M51.1889 38.4745C51.1889 38.4745 49.048 36.6903 45.4797 37.0472C34.0615 38.1891 36.9349 90.0132 28.7091 90.9272C25.4977 91.284 23 90.2136 23 90.2136" stroke="#6AAE6F" stroke-width="4" stroke-linecap="round"/>
<path d="M64.3913 45.2543C64.3913 45.2543 57.2548 52.6456 57.2548 65.9499C57.2548 79.2542 64.3913 86.6455 64.3913 86.6455" stroke="#6AAE6F" stroke-width="4" stroke-linecap="round"/>
<path d="M98.6461 86.6455C98.6461 86.6455 105.783 79.2542 105.783 65.9499C105.783 52.6455 98.6461 45.2542 98.6461 45.2542" stroke="#6AAE6F" stroke-width="4" stroke-linecap="round"/>
<path d="M91.5097 55.9586H90.6972C89.4145 55.9586 88.2097 56.5737 87.4574 57.6126L74.8663 75.0003C74.114 76.0392 72.9092 76.6543 71.6265 76.6543H70.814" stroke="#6AAE6F" stroke-width="4" stroke-linecap="round"/>
<path d="M89.3688 76.6543H88.7075C87.152 76.6543 85.7376 75.7525 85.0812 74.3424L77.5994 58.2705C76.943 56.8603 75.5286 55.9586 73.9731 55.9586H72.955" stroke="#6AAE6F" stroke-width="4" stroke-linecap="round"/>
<path d="M30.1364 55.6021H45.8365" stroke="#6AAE6F" stroke-width="4" stroke-linecap="round"/>
</g>
<defs>
<clipPath id="clip0_4_66">
<rect width="128" height="128" fill="white"/>
</clipPath>
</defs>
</svg>
