<svg width="128" height="128" viewBox="0 0 128 128" fill="none" xmlns="http://www.w3.org/2000/svg">
<rect x="1" y="1" width="126" height="126" rx="19" fill="currentColor" fill-opacity="0.25" stroke="currentColor" stroke-width="2"/>
<path d="M106 50.6667L106 28C106 25.7909 104.209 24 102 24L74 24C71.7909 24 70 25.7909 70 28L70 50.6667M106 50.6667L70 50.6667M106 50.6667L106 77.3333M70 50.6667L70 77.3333M106 77.3333L106 100C106 102.209 104.209 104 102 104L74 104C71.7909 104 70 102.209 70 100L70 77.3333M106 77.3333L70 77.3333" stroke="currentColor" stroke-width="2" stroke-linejoin="round"/>
<rect x="19" y="53" width="22" height="22" rx="3" stroke="currentColor" stroke-width="2"/>
<path d="M48 63C47.4477 63 47 63.4477 47 64C47 64.5523 47.4477 65 48 65V64V63ZM63.7071 64.7071C64.0976 64.3166 64.0976 63.6834 63.7071 63.2929L57.3431 56.9289C56.9526 56.5384 56.3195 56.5384 55.9289 56.9289C55.5384 57.3195 55.5384 57.9526 55.9289 58.3431L61.5858 64L55.9289 69.6569C55.5384 70.0474 55.5384 70.6805 55.9289 71.0711C56.3195 71.4616 56.9526 71.4616 57.3431 71.0711L63.7071 64.7071ZM48 64V65H63V64V63H48V64Z" fill="currentColor"/>
</svg>
