<svg width="128" height="128" viewBox="0 0 128 128" fill="none" xmlns="http://www.w3.org/2000/svg">
<g clip-path="url(#clip-hello)">
<rect x="1" y="1" width="126" height="126" rx="19" fill="currentColor" fill-opacity="0.25" stroke="currentColor" stroke-width="2"/>
<path d="M34 93H33C22.5066 93 14 84.4934 14 74V42C14 31.5066 22.5066 23 33 23H96C106.493 23 115 31.5066 115 42V74C115 84.4934 106.493 93 96 93H55.2324L55 93.1338L34 105.258V93Z" stroke="currentColor" stroke-width="2"/>
<path d="M47.875 45.3594C48.9583 45.3594 49.4896 45.8438 49.4688 46.8125L49.25 55.875H62.7656L63 46.75C63.0208 45.8542 63.5 45.3958 64.4375 45.375C65.5208 45.375 66.0521 45.8594 66.0312 46.8281L65.5469 68.1406C65.5365 69.2135 64.9688 69.7396 63.8438 69.7188C62.9062 69.6979 62.4479 69.1615 62.4688 68.1094C62.5417 65.1198 62.6146 62.1302 62.6875 59.1406H49.1719L48.9688 68.125C48.9479 69.1979 48.375 69.7292 47.25 69.7188C46.3125 69.6979 45.8594 69.1615 45.8906 68.1094L46.4062 46.7344C46.4271 45.8385 46.9167 45.3802 47.875 45.3594ZM72.7656 52.6406C73.7552 52.6615 74.2396 53.3385 74.2188 54.6719L74 67.6719C73.9792 69.0781 73.4792 69.7812 72.5 69.7812C71.3854 69.7708 70.8438 69.1094 70.875 67.7969L71.1406 54.6875C71.1719 53.3021 71.7135 52.6198 72.7656 52.6406ZM72.875 45.5469C72.8958 45.5469 72.9167 45.5469 72.9375 45.5469C73.2917 45.5469 73.6198 45.6354 73.9219 45.8125C74.2448 46 74.4896 46.2604 74.6562 46.5938C74.8021 46.875 74.875 47.1771 74.875 47.5C74.875 47.5521 74.875 47.6042 74.875 47.6562C74.8438 48.0312 74.7135 48.3698 74.4844 48.6719C74.276 48.9427 74.0469 49.1354 73.7969 49.25C73.5365 49.3854 73.2448 49.4479 72.9219 49.4375C72.8906 49.4375 72.8594 49.4375 72.8281 49.4375C72.5052 49.4271 72.2083 49.3385 71.9375 49.1719C71.6562 49.0052 71.4271 48.776 71.25 48.4844C71.0729 48.1823 70.9844 47.8542 70.9844 47.5C70.9844 47.1667 71.0677 46.8542 71.2344 46.5625C71.4115 46.2604 71.6354 46.0156 71.9062 45.8281C72.1979 45.6406 72.5208 45.5469 72.875 45.5469ZM80.1094 66.1719C80.2656 66.1302 80.4271 66.1146 80.5938 66.125C80.7708 66.125 80.9427 66.1458 81.1094 66.1875C81.4323 66.2812 81.7135 66.4479 81.9531 66.6875C82.2344 66.9479 82.4062 67.2344 82.4688 67.5469C82.5 67.7135 82.5208 67.8854 82.5312 68.0625C82.5312 68.2708 82.5156 68.4323 82.4844 68.5469C82.3802 68.9323 82.1875 69.2552 81.9062 69.5156C81.6146 69.776 81.2656 69.9323 80.8594 69.9844C80.776 69.9948 80.6875 70.0052 80.5938 70.0156C80.2917 70.0156 80.0104 69.9479 79.75 69.8125C79.3958 69.6458 79.1198 69.3906 78.9219 69.0469C78.7448 68.7448 78.6562 68.4167 78.6562 68.0625C78.6562 67.8021 78.7031 67.5521 78.7969 67.3125C78.9115 67.0312 79.0885 66.7917 79.3281 66.5938C79.5365 66.3958 79.7969 66.2552 80.1094 66.1719ZM80.75 43.9062C81.6771 43.9062 82.1406 44.375 82.1406 45.3125L82.125 62.8438C82.125 63.6771 81.651 64.0938 80.7031 64.0938C80.6823 64.0938 80.6615 64.0938 80.6406 64.0938C79.7969 64.1146 79.375 63.6667 79.375 62.75L79.3594 45.2812C79.3594 45.2708 79.3594 45.2604 79.3594 45.25C79.349 44.3333 79.7917 43.8854 80.6875 43.9062C80.7083 43.9062 80.7292 43.9062 80.75 43.9062Z" fill="currentColor"/>
</g>
<defs>
<clipPath id="clip-hello">
<rect width="128" height="128" fill="white"/>
</clipPath>
</defs>
</svg>
