<svg width="128" height="128" viewBox="0 0 128 128" fill="none" xmlns="http://www.w3.org/2000/svg">
<g clip-path="url(#clip-if)">
<rect x="1" y="1" width="126" height="126" rx="19" fill="currentColor" fill-opacity="0.25" stroke="currentColor" stroke-width="2" stroke-linecap="round"/>
<rect x="17" y="84" width="26" height="26" rx="5" stroke="currentColor" stroke-width="2" stroke-linecap="round"/>
<rect x="85" y="84" width="26" height="26" rx="5" stroke="currentColor" stroke-width="2" stroke-linecap="round"/>
<rect x="63.981" y="13.4142" width="30.5" height="30.5" rx="5" transform="rotate(45 63.981 13.4142)" stroke="currentColor" stroke-width="2" stroke-linecap="round"/>
<path d="M97.2929 83.7071C97.6834 84.0976 98.3166 84.0976 98.7071 83.7071L105.071 77.3431C105.462 76.9526 105.462 76.3195 105.071 75.9289C104.681 75.5384 104.047 75.5384 103.657 75.9289L98 81.5858L92.3431 75.9289C91.9526 75.5384 91.3195 75.5384 90.9289 75.9289C90.5384 76.3195 90.5384 76.9526 90.9289 77.3431L97.2929 83.7071ZM29.2929 83.7071C29.6834 84.0976 30.3166 84.0976 30.7071 83.7071L37.0711 77.3431C37.4616 76.9526 37.4616 76.3195 37.0711 75.9289C36.6805 75.5384 36.0474 75.5384 35.6569 75.9289L30 81.5858L24.3431 75.9289C23.9526 75.5384 23.3195 75.5384 22.9289 75.9289C22.5384 76.3195 22.5384 76.9526 22.9289 77.3431L29.2929 83.7071ZM36 65V66H64V65V64H36V65ZM64 65V66H92V65V64H64V65ZM98 71H97V83H98H99V71H98ZM30 83H31V71H30H29V83H30ZM64 65H65V55H64H63V65H64ZM92 65V66C94.7614 66 97 68.2386 97 71H98H99C99 67.134 95.866 64 92 64V65ZM36 65V64C32.134 64 29 67.134 29 71H30H31C31 68.2386 33.2386 66 36 66V65Z" fill="currentColor"/>
</g>
<defs>
<clipPath id="clip-if">
<rect width="128" height="128" fill="white"/>
</clipPath>
</defs>
</svg>
