<svg width="128" height="128" viewBox="0 0 128 128" fill="none" xmlns="http://www.w3.org/2000/svg">
<g clip-path="url(#clip0_4_66)">
<path d="M33.1177 92.3229C33.5482 91.8924 34.2466 91.8924 34.6771 92.3229C35.1074 92.7534 35.1074 93.4513 34.6771 93.8817L31.5589 96.9995L34.6771 100.118C35.1076 100.548 35.1076 101.247 34.6771 101.677C34.2466 102.108 33.5482 102.108 33.1177 101.677L29.9995 98.5589L26.8817 101.677C26.4513 102.107 25.7534 102.107 25.3229 101.677C24.8924 101.247 24.8924 100.548 25.3229 100.118L28.4406 96.9995L25.3229 93.8817C24.8924 93.4512 24.8924 92.7534 25.3229 92.3229C25.7534 91.8924 26.4512 91.8924 26.8817 92.3229L29.9995 95.4406L33.1177 92.3229Z" fill="#6AAE6F"/>
<rect x="1" y="1" width="126" height="126" rx="19" fill="#6AAE6F" fill-opacity="0.25" stroke="#6AAE6F" stroke-width="2" stroke-linecap="round"/>
<rect x="17" y="84" width="26" height="26" rx="5" fill="#6AAE6F" fill-opacity="0.25" stroke="#6AAE6F" stroke-width="2" stroke-linecap="round"/>
<rect x="85" y="84" width="26" height="26" rx="5" fill="#6AAE6F" fill-opacity="0.25" stroke="#6AAE6F" stroke-width="2" stroke-linecap="round"/>
<rect x="63.981" y="13.4142" width="30.5" height="30.5" rx="5" transform="rotate(45 63.981 13.4142)" fill="#6AAE6F" fill-opacity="0.25" stroke="#6AAE6F" stroke-width="2" stroke-linecap="round"/>
<path d="M97.2929 83.7071C97.6834 84.0976 98.3166 84.0976 98.7071 83.7071L105.071 77.3431C105.462 76.9526 105.462 76.3195 105.071 75.9289C104.681 75.5384 104.047 75.5384 103.657 75.9289L98 81.5858L92.3431 75.9289C91.9526 75.5384 91.3195 75.5384 90.9289 75.9289C90.5384 76.3195 90.5384 76.9526 90.9289 77.3431L97.2929 83.7071ZM29.2929 83.7071C29.6834 84.0976 30.3166 84.0976 30.7071 83.7071L37.0711 77.3431C37.4616 76.9526 37.4616 76.3195 37.0711 75.9289C36.6805 75.5384 36.0474 75.5384 35.6569 75.9289L30 81.5858L24.3431 75.9289C23.9526 75.5384 23.3195 75.5384 22.9289 75.9289C22.5384 76.3195 22.5384 76.9526 22.9289 77.3431L29.2929 83.7071ZM36 65V66H64V65V64H36V65ZM64 65V66H92V65V64H64V65ZM98 71H97V83H98H99V71H98ZM30 83H31V71H30H29V83H30ZM64 65H65V55H64H63V65H64ZM92 65V66C94.7614 66 97 68.2386 97 71H98H99C99 67.134 95.866 64 92 64V65ZM36 65V64C32.134 64 29 67.134 29 71H30H31C31 68.2386 33.2386 66 36 66V65Z" fill="#6AAE6F"/>
<path d="M63.4022 40.168C63.4937 40.1288 63.5908 40.105 63.6933 40.0967C63.8013 40.081 63.9079 40.0786 64.0132 40.0893C64.2184 40.1179 64.4046 40.1947 64.5718 40.3196C64.7663 40.4535 64.8964 40.613 64.9621 40.798C64.9959 40.8969 65.0238 40.9998 65.0458 41.1069C65.0642 41.2339 65.0689 41.3337 65.06 41.4064C65.0305 41.6506 64.9415 41.8645 64.793 42.0481C64.6382 42.2326 64.4392 42.3587 64.1961 42.4263C64.1462 42.44 64.0932 42.4542 64.0369 42.4688C63.8527 42.4955 63.6753 42.4791 63.5045 42.4195C63.2739 42.3492 63.083 42.2179 62.932 42.0258C62.7974 41.8573 62.7144 41.665 62.6831 41.4491C62.6601 41.2903 62.6666 41.1337 62.7026 40.9794C62.7477 40.7978 62.8345 40.6361 62.9631 40.4942C63.0726 40.3552 63.219 40.2464 63.4022 40.168ZM59.7015 29.392C60.3286 28.4387 61.4655 27.8266 63.1122 27.5557C65.3033 27.193 66.6958 28.032 67.2896 30.0729C68.0004 32.4729 67.5446 34.0271 65.9224 34.7355C64.7753 35.2323 64.2403 35.7475 64.3176 36.281C64.4753 37.5485 64.2706 38.2396 63.7036 38.3541C62.8463 38.5237 62.4012 37.8684 62.3684 36.3882C62.3367 35.0505 62.9425 34.0842 64.1856 33.4891C65.4233 32.9013 65.8172 31.9721 65.3673 30.7015C65.0716 29.8689 64.4392 29.4645 63.4699 29.4881C62.5778 29.5071 61.9104 29.7789 61.4676 30.3034C60.7822 31.1224 60.2486 31.4234 59.867 31.2063C59.2165 30.8337 59.1613 30.2289 59.7015 29.392Z" fill="#6AAE6F"/>
<path d="M102.371 92.6294C102.853 92.1466 103.636 92.1466 104.119 92.6294C104.601 93.1122 104.601 93.8947 104.119 94.3774L97.1362 101.359C97.1327 101.362 97.1302 101.367 97.1266 101.371C96.6438 101.853 95.8601 101.853 95.3774 101.371L91.8814 97.8734C91.3988 97.3906 91.3987 96.6081 91.8814 96.1254C92.364 95.6427 93.1466 95.6429 93.6294 96.1254L96.2514 98.7462L102.371 92.6294Z" fill="#6AAE6F"/>
</g>
<defs>
<clipPath id="clip0_4_66">
<rect width="128" height="128" fill="white"/>
</clipPath>
</defs>
</svg>
