<svg width="128" height="128" viewBox="0 0 128 128" fill="none" xmlns="http://www.w3.org/2000/svg">
<rect x="1" y="1" width="126" height="126" rx="19" fill="currentColor" fill-opacity="0.5" fill="currentColor" stroke-width="2"/>
<path d="M66.7921 27.6914C67.7487 28.2437 68.0764 29.4669 67.5241 30.4235L66.719 31.8181C66.2434 32.6418 66.421 33.68 67.0885 34.3577C68.4756 35.7662 69.6641 37.3271 70.6432 38.9957C71.1244 39.8159 72.0818 40.2565 73.0004 40.0105L74.5599 39.5926C75.6268 39.3069 76.7233 39.9399 77.0091 41.0067L78.4425 46.3561C78.7281 47.423 78.0945 48.5191 77.0276 48.8048L75.4695 49.2223C74.5507 49.4684 73.9413 50.3281 73.9346 51.2793C73.9209 53.2142 73.6718 55.1605 73.1746 57.0741C72.9354 57.9947 73.3007 58.9826 74.1244 59.4582L75.5199 60.2639C76.4764 60.8162 76.8042 62.0394 76.2519 62.996L73.4829 67.7921C72.9306 68.7487 71.7074 69.0764 70.7508 68.5241L69.3554 67.7185C68.5316 67.2429 67.4934 67.4205 66.8157 68.088C65.4072 69.4752 63.8464 70.6636 62.1777 71.6427C61.3574 72.124 60.9176 73.0818 61.1638 74.0004L61.5816 75.5599C61.8674 76.6267 61.2343 77.7232 60.1676 78.0091L54.8182 79.4425C53.7514 79.7282 52.6549 79.0952 52.369 78.0284L51.9511 76.469C51.705 75.5503 50.8452 74.9407 49.8942 74.9341C47.9595 74.9205 46.0136 74.6717 44.1002 74.1746C43.1796 73.9354 42.1916 74.3007 41.716 75.1244L40.9104 76.5199C40.3581 77.4764 39.1349 77.8042 38.1783 77.2519L33.3822 74.4829C32.4256 73.9306 32.0979 72.7074 32.6501 71.7508L33.4558 70.3554C33.9314 69.5316 33.7538 68.4934 33.0863 67.8157C31.6989 66.4071 30.51 64.8461 29.5307 63.1772C29.0493 62.3569 28.0917 61.917 27.173 62.1633L25.6149 62.5808C24.548 62.8668 23.4512 62.2343 23.1651 61.1676L21.7318 55.8182C21.4459 54.7514 22.0791 53.655 23.1458 53.369L24.7066 52.9508C25.6252 52.7045 26.234 51.8443 26.2407 50.8933C26.2544 48.9591 26.5035 47.0137 27.0005 45.1007C27.2397 44.1801 26.8745 43.1921 26.0507 42.7165L24.6544 41.9104C23.6978 41.3581 23.3701 40.1349 23.9224 39.1783L26.6914 34.3822C27.2437 33.4256 28.4669 33.0979 29.4235 33.6501L30.8198 34.4563C31.6435 34.9319 32.6818 34.7543 33.3594 34.0868C34.7677 32.6995 36.3281 31.5108 37.9966 30.5316C38.8168 30.0502 39.2566 29.0925 39.0105 28.1738L38.5926 26.6144C38.3069 25.5476 38.94 24.4511 40.0067 24.1651L45.3561 22.7318C46.4229 22.4461 47.5193 23.0791 47.8053 24.1458L48.2228 25.704C48.469 26.6227 49.3287 27.2322 50.2798 27.2389C52.2147 27.2525 54.1609 27.5016 56.0746 27.9988C56.9952 28.238 57.9831 27.8728 58.4587 27.049L59.2639 25.6544C59.8162 24.6978 61.0394 24.3701 61.996 24.9224L66.7921 27.6914ZM56.0479 40.7618C50.3457 37.4699 43.0546 39.4235 39.7623 45.1255C36.4701 50.8278 38.4234 58.1196 44.1255 61.412C49.8279 64.7042 57.1202 62.7503 60.4124 57.0479C63.7044 51.3455 61.7502 44.054 56.0479 40.7618Z" fill="currentColor" fill-opacity="0.5"/>
<path d="M66.7921 27.6914L67.2921 26.8254V26.8254L66.7921 27.6914ZM67.5241 30.4235L66.6581 29.9235L67.5241 30.4235ZM66.719 31.8181L65.8529 31.3181L65.8529 31.3181L66.719 31.8181ZM67.0885 34.3577L67.801 33.656L67.801 33.656L67.0885 34.3577ZM70.6432 38.9957L71.5057 38.4896L71.5057 38.4896L70.6432 38.9957ZM73.0004 40.0105L73.2591 40.9764L73.2593 40.9764L73.0004 40.0105ZM74.5599 39.5926L74.3012 38.6267L74.3011 38.6267L74.5599 39.5926ZM77.0091 41.0067L77.9751 40.7479L77.0091 41.0067ZM78.4425 46.3561L79.4085 46.0975L79.4084 46.0972L78.4425 46.3561ZM77.0276 48.8048L76.7689 47.8388L76.7688 47.8389L77.0276 48.8048ZM75.4695 49.2223L75.7281 50.1883L75.7283 50.1882L75.4695 49.2223ZM73.9346 51.2793L72.9346 51.2721L72.9346 51.2722L73.9346 51.2793ZM73.1746 57.0741L74.1424 57.3256L74.1424 57.3256L73.1746 57.0741ZM74.1244 59.4582L73.6244 60.3243L73.6244 60.3243L74.1244 59.4582ZM75.5199 60.2639L75.0199 61.1299L75.5199 60.2639ZM76.2519 62.996L77.1179 63.496V63.496L76.2519 62.996ZM73.4829 67.7921L74.3489 68.2921V68.2921L73.4829 67.7921ZM70.7508 68.5241L70.2508 69.3902V69.3902L70.7508 68.5241ZM69.3554 67.7185L69.8554 66.8524L69.8553 66.8524L69.3554 67.7185ZM66.8157 68.088L67.5174 68.8005V68.8005L66.8157 68.088ZM62.1777 71.6427L62.6838 72.5052L62.6838 72.5052L62.1777 71.6427ZM61.1638 74.0004L60.1979 74.2593L61.1638 74.0004ZM61.5816 75.5599L62.5476 75.3012L62.5476 75.3011L61.5816 75.5599ZM60.1676 78.0091L60.4264 78.9751L60.4265 78.975L60.1676 78.0091ZM54.8182 79.4425L55.0769 80.4084L55.077 80.4084L54.8182 79.4425ZM52.369 78.0284L51.4031 78.2872L51.4031 78.2873L52.369 78.0284ZM51.9511 76.469L50.9852 76.7278L51.9511 76.469ZM49.8942 74.9341L49.8871 75.934L49.8871 75.934L49.8942 74.9341ZM44.1002 74.1746L43.8488 75.1425V75.1425L44.1002 74.1746ZM41.716 75.1244L40.85 74.6244L40.85 74.6244L41.716 75.1244ZM40.9104 76.5199L40.0443 76.0199L40.9104 76.5199ZM38.1783 77.2519L37.6783 78.1179V78.1179L38.1783 77.2519ZM33.3822 74.4829L32.8822 75.3489V75.3489L33.3822 74.4829ZM32.6501 71.7508L31.7841 71.2508V71.2508L32.6501 71.7508ZM33.4558 70.3554L34.3218 70.8554L34.3218 70.8553L33.4558 70.3554ZM33.0863 67.8157L32.3738 68.5174L32.3738 68.5174L33.0863 67.8157ZM29.5307 63.1772L30.3932 62.6711L30.3932 62.6711L29.5307 63.1772ZM27.173 62.1633L27.4318 63.1292L27.4319 63.1292L27.173 62.1633ZM25.6149 62.5808L25.356 61.6149L25.3559 61.6149L25.6149 62.5808ZM23.1651 61.1676L22.1992 61.4264L22.1993 61.4266L23.1651 61.1676ZM21.7318 55.8182L20.7659 56.077L21.7318 55.8182ZM23.1458 53.369L22.887 52.4031L22.8869 52.4031L23.1458 53.369ZM24.7066 52.9508L24.9655 53.9167L24.9656 53.9167L24.7066 52.9508ZM26.2407 50.8933L25.2407 50.8862L25.2407 50.8862L26.2407 50.8933ZM27.0005 45.1007L26.0327 44.8492L26.0327 44.8492L27.0005 45.1007ZM26.0507 42.7165L26.5507 41.8505L26.5507 41.8505L26.0507 42.7165ZM24.6544 41.9104L24.1544 42.7764L24.6544 41.9104ZM23.9224 39.1783L23.0563 38.6783V38.6783L23.9224 39.1783ZM26.6914 34.3822L25.8254 33.8822V33.8822L26.6914 34.3822ZM29.4235 33.6501L29.9235 32.7841L29.4235 33.6501ZM30.8198 34.4563L30.3198 35.3223L30.3198 35.3223L30.8198 34.4563ZM33.3594 34.0868L32.6577 33.3743L32.6577 33.3743L33.3594 34.0868ZM37.9966 30.5316L37.4904 29.6691L37.4904 29.6691L37.9966 30.5316ZM38.5926 26.6144L37.6267 26.8731L37.6267 26.8732L38.5926 26.6144ZM40.0067 24.1651L39.7479 23.1992L39.7478 23.1992L40.0067 24.1651ZM45.3561 22.7318L45.0973 21.7658L45.0972 21.7659L45.3561 22.7318ZM47.8053 24.1458L48.7712 23.887L48.7712 23.8869L47.8053 24.1458ZM48.2228 25.704L47.2569 25.9628L48.2228 25.704ZM50.2798 27.2389L50.2868 26.2389L50.2868 26.2389L50.2798 27.2389ZM56.0746 27.9988L56.326 27.031L56.326 27.031L56.0746 27.9988ZM58.4587 27.049L59.3247 27.549L59.3248 27.549L58.4587 27.049ZM59.2639 25.6544L58.3979 25.1544L59.2639 25.6544ZM61.996 24.9224L62.496 24.0563V24.0563L61.996 24.9224ZM56.0479 40.7618L56.5479 39.8958L56.5479 39.8958L56.0479 40.7618ZM39.7623 45.1255L38.8963 44.6255L38.8963 44.6255L39.7623 45.1255ZM44.1255 61.412L43.6255 62.278L43.6255 62.278L44.1255 61.412ZM60.4124 57.0479L61.2785 57.5479L61.2785 57.5479L60.4124 57.0479ZM66.7921 27.6914L66.2921 28.5574C66.7704 28.8336 66.9342 29.4452 66.6581 29.9235L67.5241 30.4235L68.3902 30.9235C69.2186 29.4886 68.727 27.6538 67.2921 26.8254L66.7921 27.6914ZM67.5241 30.4235L66.6581 29.9235L65.8529 31.3181L66.719 31.8181L67.585 32.3181L68.3902 30.9235L67.5241 30.4235ZM66.719 31.8181L65.8529 31.3181C65.1322 32.5666 65.4224 34.0912 66.376 35.0594L67.0885 34.3577L67.801 33.656C67.4197 33.2689 67.3546 32.7171 67.585 32.318L66.719 31.8181ZM67.0885 34.3577L66.376 35.0594C67.7043 36.4081 68.8426 37.903 69.7807 39.5018L70.6432 38.9957L71.5057 38.4896C70.4855 36.7511 69.247 35.1243 67.801 33.656L67.0885 34.3577ZM70.6432 38.9957L69.7807 39.5018C70.4686 40.6741 71.8669 41.3493 73.2591 40.9764L73.0004 40.0105L72.7417 39.0445C72.2968 39.1637 71.7803 38.9577 71.5057 38.4896L70.6432 38.9957ZM73.0004 40.0105L73.2593 40.9764L74.8187 40.5586L74.5599 39.5926L74.3011 38.6267L72.7416 39.0446L73.0004 40.0105ZM74.5599 39.5926L74.8186 40.5586C75.3522 40.4157 75.9003 40.7323 76.0432 41.2655L77.0091 41.0067L77.9751 40.7479C77.5462 39.1475 75.9013 38.1981 74.3012 38.6267L74.5599 39.5926ZM77.0091 41.0067L76.0432 41.2655L77.4766 46.6149L78.4425 46.3561L79.4084 46.0972L77.9751 40.7479L77.0091 41.0067ZM78.4425 46.3561L77.4765 46.6147C77.6192 47.1477 77.3027 47.6959 76.7689 47.8388L77.0276 48.8048L77.2863 49.7708C78.8862 49.3423 79.837 47.6982 79.4085 46.0975L78.4425 46.3561ZM77.0276 48.8048L76.7688 47.8389L75.2106 48.2564L75.4695 49.2223L75.7283 50.1882L77.2864 49.7707L77.0276 48.8048ZM75.4695 49.2223L75.2108 48.2563C73.8187 48.6291 72.9443 49.9122 72.9346 51.2721L73.9346 51.2793L74.9345 51.2864C74.9384 50.7441 75.2826 50.3076 75.7281 50.1883L75.4695 49.2223ZM73.9346 51.2793L72.9346 51.2722C72.9215 53.126 72.6829 54.9901 72.2067 56.8226L73.1746 57.0741L74.1424 57.3256C74.6608 55.3308 74.9203 53.3023 74.9345 51.2863L73.9346 51.2793ZM73.1746 57.0741L72.2067 56.8226C71.8649 58.1379 72.376 59.6035 73.6244 60.3243L74.1244 59.4582L74.6244 58.5922C74.2254 58.3618 74.0058 57.8514 74.1424 57.3256L73.1746 57.0741ZM74.1244 59.4582L73.6244 60.3243L75.0199 61.1299L75.5199 60.2639L76.0199 59.3979L74.6244 58.5922L74.1244 59.4582ZM75.5199 60.2639L75.0199 61.1299C75.4981 61.4061 75.662 62.0177 75.3859 62.496L76.2519 62.996L77.1179 63.496C77.9464 62.0611 77.4547 60.2263 76.0199 59.3979L75.5199 60.2639ZM76.2519 62.996L75.3859 62.496L72.6168 67.2921L73.4829 67.7921L74.3489 68.2921L77.1179 63.496L76.2519 62.996ZM73.4829 67.7921L72.6168 67.2921C72.3407 67.7704 71.7291 67.9342 71.2508 67.6581L70.7508 68.5241L70.2508 69.3902C71.6857 70.2186 73.5205 69.727 74.3489 68.2921L73.4829 67.7921ZM70.7508 68.5241L71.2508 67.6581L69.8554 66.8524L69.3554 67.7185L68.8554 68.5845L70.2508 69.3902L70.7508 68.5241ZM69.3554 67.7185L69.8553 66.8524C68.6069 66.1317 67.0822 66.4219 66.114 67.3755L66.8157 68.088L67.5174 68.8005C67.9046 68.4192 68.4563 68.3541 68.8554 68.5845L69.3554 67.7185ZM66.8157 68.088L66.114 67.3755C64.7653 68.7038 63.2704 69.8421 61.6716 70.7802L62.1777 71.6427L62.6838 72.5052C64.4224 71.4851 66.0491 70.2465 67.5174 68.8005L66.8157 68.088ZM62.1777 71.6427L61.6716 70.7802C60.4985 71.4686 59.825 72.8676 60.1979 74.2593L61.1638 74.0004L62.1297 73.7416C62.0103 73.2959 62.2163 72.7795 62.6838 72.5052L62.1777 71.6427ZM61.1638 74.0004L60.1979 74.2593L60.6157 75.8187L61.5816 75.5599L62.5476 75.3011L62.1297 73.7416L61.1638 74.0004ZM61.5816 75.5599L60.6157 75.8186C60.7586 76.352 60.442 76.9003 59.9087 77.0432L60.1676 78.0091L60.4265 78.975C62.0266 78.5461 62.9762 76.9014 62.5476 75.3012L61.5816 75.5599ZM60.1676 78.0091L59.9088 77.0432L54.5594 78.4766L54.8182 79.4425L55.077 80.4084L60.4264 78.9751L60.1676 78.0091ZM54.8182 79.4425L54.5595 78.4765C54.0261 78.6194 53.4779 78.3029 53.3349 77.7695L52.369 78.0284L51.4031 78.2873C51.832 79.8875 53.4767 80.837 55.0769 80.4084L54.8182 79.4425ZM52.369 78.0284L53.3349 77.7696L52.917 76.2101L51.9511 76.469L50.9852 76.7278L51.4031 78.2872L52.369 78.0284ZM51.9511 76.469L52.917 76.2101C52.5442 74.8185 51.2613 73.9436 49.9012 73.9341L49.8942 74.9341L49.8871 75.934C50.4291 75.9379 50.8658 76.2821 50.9852 76.7278L51.9511 76.469ZM49.8942 74.9341L49.9012 73.9341C48.0476 73.9211 46.1838 73.6827 44.3516 73.2067L44.1002 74.1746L43.8488 75.1425C45.8433 75.6606 47.8714 75.9199 49.8871 75.934L49.8942 74.9341ZM44.1002 74.1746L44.3516 73.2067C43.0363 72.865 41.5708 73.3759 40.85 74.6244L41.716 75.1244L42.582 75.6244C42.8124 75.2254 43.3228 75.0058 43.8488 75.1425L44.1002 74.1746ZM41.716 75.1244L40.85 74.6244L40.0443 76.0199L40.9104 76.5199L41.7764 77.0199L42.5821 75.6244L41.716 75.1244ZM40.9104 76.5199L40.0443 76.0199C39.7682 76.4981 39.1566 76.662 38.6783 76.3859L38.1783 77.2519L37.6783 78.1179C39.1132 78.9464 40.948 78.4547 41.7764 77.0199L40.9104 76.5199ZM38.1783 77.2519L38.6783 76.3859L33.8822 73.6168L33.3822 74.4829L32.8822 75.3489L37.6783 78.1179L38.1783 77.2519ZM33.3822 74.4829L33.8822 73.6168C33.4039 73.3407 33.24 72.7291 33.5162 72.2508L32.6501 71.7508L31.7841 71.2508C30.9557 72.6857 31.4473 74.5205 32.8822 75.3489L33.3822 74.4829ZM32.6501 71.7508L33.5162 72.2508L34.3218 70.8554L33.4558 70.3554L32.5898 69.8554L31.7841 71.2508L32.6501 71.7508ZM33.4558 70.3554L34.3218 70.8553C35.0426 69.6069 34.7524 68.0822 33.7987 67.114L33.0863 67.8157L32.3738 68.5174C32.7551 68.9045 32.8202 69.4563 32.5898 69.8554L33.4558 70.3554ZM33.0863 67.8157L33.7987 67.114C32.4702 65.7651 31.3314 64.27 30.3932 62.6711L29.5307 63.1772L28.6682 63.6833C29.6886 65.4221 30.9276 67.0491 32.3738 68.5174L33.0863 67.8157ZM29.5307 63.1772L30.3932 62.6711C29.7048 61.4982 28.306 60.8242 26.914 61.1974L27.173 62.1633L27.4319 63.1292C27.8774 63.0098 28.3938 63.2157 28.6683 63.6834L29.5307 63.1772ZM27.173 62.1633L26.9142 61.1974L25.356 61.6149L25.6149 62.5808L25.8737 63.5467L27.4318 63.1292L27.173 62.1633ZM25.6149 62.5808L25.3559 61.6149C24.8221 61.758 24.274 61.4415 24.131 60.9085L23.1651 61.1676L22.1993 61.4266C22.6285 63.0272 24.274 63.9756 25.8738 63.5467L25.6149 62.5808ZM23.1651 61.1676L24.1311 60.9088L22.6977 55.5594L21.7318 55.8182L20.7659 56.077L22.1992 61.4264L23.1651 61.1676ZM21.7318 55.8182L22.6977 55.5594C22.5548 55.0261 22.8712 54.4779 23.4048 54.3349L23.1458 53.369L22.8869 52.4031C21.2869 52.832 20.337 54.4766 20.7659 56.077L21.7318 55.8182ZM23.1458 53.369L23.4047 54.3349L24.9655 53.9167L24.7066 52.9508L24.4478 51.9848L22.887 52.4031L23.1458 53.369ZM24.7066 52.9508L24.9656 53.9167C26.3577 53.5434 27.231 52.2595 27.2407 50.9004L26.2407 50.8933L25.2407 50.8862C25.2369 51.429 24.8926 51.8656 24.4477 51.9849L24.7066 52.9508ZM26.2407 50.8933L27.2407 50.9004C27.2538 49.0473 27.4924 47.184 27.9684 45.3522L27.0005 45.1007L26.0327 44.8492C25.5145 46.8433 25.255 48.8708 25.2407 50.8862L26.2407 50.8933ZM27.0005 45.1007L27.9684 45.3522C28.3101 44.0368 27.7992 42.5713 26.5507 41.8505L26.0507 42.7165L25.5507 43.5825C25.9497 43.8129 26.1693 44.3233 26.0327 44.8492L27.0005 45.1007ZM26.0507 42.7165L26.5507 41.8505L25.1544 41.0443L24.6544 41.9104L24.1544 42.7764L25.5507 43.5825L26.0507 42.7165ZM24.6544 41.9104L25.1544 41.0443C24.6761 40.7682 24.5122 40.1566 24.7884 39.6783L23.9224 39.1783L23.0563 38.6783C22.2279 40.1132 22.7195 41.948 24.1544 42.7764L24.6544 41.9104ZM23.9224 39.1783L24.7884 39.6783L27.5574 34.8822L26.6914 34.3822L25.8254 33.8822L23.0563 38.6783L23.9224 39.1783ZM26.6914 34.3822L27.5574 34.8822C27.8336 34.4039 28.4452 34.24 28.9235 34.5162L29.4235 33.6501L29.9235 32.7841C28.4886 31.9557 26.6538 32.4473 25.8254 33.8822L26.6914 34.3822ZM29.4235 33.6501L28.9235 34.5162L30.3198 35.3223L30.8198 34.4563L31.3198 33.5903L29.9235 32.7841L29.4235 33.6501ZM30.8198 34.4563L30.3198 35.3223C31.5682 36.0431 33.0929 35.7529 34.0612 34.7992L33.3594 34.0868L32.6577 33.3743C32.2706 33.7556 31.7188 33.8207 31.3197 33.5903L30.8198 34.4563ZM33.3594 34.0868L34.0612 34.7992C35.4098 33.4708 36.9043 32.3321 38.5027 31.394L37.9966 30.5316L37.4904 29.6691C35.7519 30.6894 34.1257 31.9283 32.6577 33.3743L33.3594 34.0868ZM37.9966 30.5316L38.5027 31.394C39.6757 30.7056 40.3493 29.3067 39.9764 27.915L39.0105 28.1738L38.0446 28.4327C38.164 28.8783 37.958 29.3947 37.4904 29.6691L37.9966 30.5316ZM39.0105 28.1738L39.9764 27.915L39.5586 26.3556L38.5926 26.6144L37.6267 26.8732L38.0446 28.4327L39.0105 28.1738ZM38.5926 26.6144L39.5586 26.3557C39.4157 25.8223 39.7322 25.274 40.2656 25.131L40.0067 24.1651L39.7478 23.1992C38.1477 23.6282 37.1981 25.2729 37.6267 26.8731L38.5926 26.6144ZM40.0067 24.1651L40.2655 25.1311L45.6149 23.6977L45.3561 22.7318L45.0972 21.7659L39.7479 23.1992L40.0067 24.1651ZM45.3561 22.7318L45.6148 23.6977C46.1482 23.5549 46.6964 23.8714 46.8394 24.4048L47.8053 24.1458L48.7712 23.8869C48.3423 22.2868 46.6975 21.3372 45.0973 21.7658L45.3561 22.7318ZM47.8053 24.1458L46.8394 24.4047L47.2569 25.9628L48.2228 25.704L49.1887 25.4452L48.7712 23.887L47.8053 24.1458ZM48.2228 25.704L47.2569 25.9628C47.6298 27.3545 48.9126 28.2292 50.2727 28.2388L50.2798 27.2389L50.2868 26.2389C49.7448 26.2351 49.3081 25.8909 49.1887 25.4452L48.2228 25.704ZM50.2798 27.2389L50.2727 28.2388C52.1265 28.2519 53.9906 28.4906 55.8231 28.9667L56.0746 27.9988L56.326 27.031C54.3313 26.5127 52.3028 26.2531 50.2868 26.2389L50.2798 27.2389ZM56.0746 27.9988L55.8231 28.9667C57.1384 29.3085 58.6039 28.7975 59.3247 27.549L58.4587 27.049L57.5927 26.549C57.3623 26.9481 56.8519 27.1676 56.326 27.031L56.0746 27.9988ZM58.4587 27.049L59.3248 27.549L60.1299 26.1544L59.2639 25.6544L58.3979 25.1544L57.5927 26.549L58.4587 27.049ZM59.2639 25.6544L60.1299 26.1544C60.4061 25.6761 61.0177 25.5122 61.496 25.7884L61.996 24.9224L62.496 24.0563C61.0611 23.2279 59.2263 23.7195 58.3979 25.1544L59.2639 25.6544ZM61.996 24.9224L61.496 25.7884L66.2921 28.5574L66.7921 27.6914L67.2921 26.8254L62.496 24.0563L61.996 24.9224ZM56.0479 40.7618L56.5479 39.8958C50.3674 36.3278 42.4648 38.4452 38.8963 44.6255L39.7623 45.1255L40.6283 45.6256C43.6445 40.4018 50.324 38.6121 55.5479 41.6279L56.0479 40.7618ZM39.7623 45.1255L38.8963 44.6255C35.328 50.806 37.4451 58.7094 43.6255 62.278L44.1255 61.412L44.6256 60.546C39.4018 57.5297 37.6122 50.8496 40.6283 45.6255L39.7623 45.1255ZM44.1255 61.412L43.6255 62.278C49.8062 65.8464 57.7101 63.7286 61.2785 57.5479L60.4124 57.0479L59.5464 56.5479C56.5303 61.772 49.8496 63.5621 44.6255 60.5459L44.1255 61.412ZM60.4124 57.0479L61.2785 57.5479C64.8466 51.3672 62.7284 43.4641 56.5479 39.8958L56.0479 40.7618L55.5479 41.6278C60.7719 44.644 62.5622 51.3239 59.5464 56.5479L60.4124 57.0479Z" fill="currentColor"/>
<path d="M102.06 73.9178C103.017 73.3659 104.24 73.6931 104.792 74.6493L107.561 79.4462C108.114 80.4028 107.786 81.6265 106.83 82.1787L105.187 83.1258C104.408 83.5754 104.037 84.4886 104.188 85.3751C104.524 87.3425 104.533 89.3714 104.192 91.3755C104.042 92.2623 104.412 93.1758 105.191 93.6256L106.83 94.5714C107.786 95.1237 108.114 96.3469 107.562 97.3035L104.793 102.1C104.24 103.056 103.017 103.384 102.06 102.832L100.422 101.886C99.6433 101.436 98.6672 101.571 97.9746 102.145C96.4094 103.442 94.6478 104.449 92.7759 105.141C91.9328 105.453 91.328 106.231 91.3278 107.13L91.3277 109.027C91.3277 110.131 90.4325 111.027 89.3281 111.027L83.79 111.028C82.6853 111.028 81.7898 110.132 81.7898 109.027L81.79 107.136C81.79 106.238 81.1855 105.46 80.3431 105.146C79.4151 104.801 78.5032 104.374 77.617 103.862C76.7308 103.351 75.9049 102.775 75.1419 102.143C74.4494 101.571 73.4734 101.436 72.695 101.885L71.0575 102.831C70.1009 103.383 68.8772 103.056 68.325 102.099L65.5564 97.3027C65.0042 96.3463 65.332 95.1225 66.2883 94.5702L67.9308 93.6218C68.7093 93.1721 69.0811 92.26 68.9298 91.3738C68.594 89.4064 68.5847 87.3775 68.9255 85.3735C69.0762 84.4867 68.7049 83.574 67.926 83.1241L66.2887 82.1788C65.3322 81.6266 65.0045 80.4033 65.5567 79.4468L68.3257 74.6507C68.878 73.6941 70.1012 73.3663 71.0577 73.9186L72.6951 74.8639C73.4741 75.3135 74.4508 75.1781 75.1433 74.604C76.7085 73.3064 78.47 72.2984 80.342 71.6053C81.1852 71.2931 81.7901 70.5158 81.7901 69.6166L81.7906 67.7213C81.7908 66.6169 82.6862 65.722 83.7906 65.7221L89.3274 65.7219C90.4319 65.7219 91.3279 66.6171 91.328 67.7215L91.3279 69.6125C91.3279 70.511 91.9319 71.2884 92.7739 71.602C93.702 71.9476 94.614 72.3758 95.5003 72.8875C96.3864 73.3991 97.2128 73.9745 97.9759 74.6055C98.6684 75.1779 99.6433 75.3128 100.421 74.8638L102.06 73.9178ZM91.1629 80.4001C86.6011 77.7666 80.7683 79.3301 78.1345 83.8918C75.5007 88.4536 77.0631 94.2866 81.6248 96.9205C86.1868 99.5544 92.0203 97.9913 94.6541 93.4294C97.2877 88.8675 95.7248 83.0339 91.1629 80.4001Z" fill="currentColor" fill-opacity="0.5"/>
<path d="M102.06 73.9178L101.56 73.0517L101.56 73.0518L102.06 73.9178ZM104.792 74.6493L105.658 74.1493L105.658 74.149L104.792 74.6493ZM107.561 79.4462L108.428 78.9462L108.428 78.9462L107.561 79.4462ZM106.83 82.1787L107.329 83.0451L107.329 83.0448L106.83 82.1787ZM105.187 83.1258L104.687 82.2594L104.687 82.2597L105.187 83.1258ZM104.188 85.3751L105.174 85.2068L105.174 85.2068L104.188 85.3751ZM104.192 91.3755L105.178 91.5431L105.178 91.5431L104.192 91.3755ZM105.191 93.6256L104.691 94.4916L104.691 94.4917L105.191 93.6256ZM106.83 94.5714L107.33 93.7054L107.33 93.7054L106.83 94.5714ZM107.562 97.3035L108.428 97.8035L107.562 97.3035ZM104.793 102.1L105.658 102.6L105.659 102.6L104.793 102.1ZM102.06 102.832L101.56 103.698L101.56 103.698L102.06 102.832ZM100.422 101.886L100.922 101.02L100.922 101.02L100.422 101.886ZM97.9746 102.145L97.3365 101.375L97.3365 101.375L97.9746 102.145ZM92.7759 105.141L93.123 106.079L93.123 106.079L92.7759 105.141ZM91.3278 107.13L90.3278 107.13L90.3278 107.13L91.3278 107.13ZM91.3277 109.027L90.3277 109.027L90.3277 109.027L91.3277 109.027ZM89.3281 111.027L89.3282 112.027L89.3283 112.027L89.3281 111.027ZM83.79 111.028L83.79 112.028L83.79 112.028L83.79 111.028ZM81.7898 109.027L80.7898 109.027L80.7898 109.027L81.7898 109.027ZM81.79 107.136L82.79 107.137L82.79 107.136L81.79 107.136ZM80.3431 105.146L79.9945 106.084L79.9945 106.084L80.3431 105.146ZM77.617 103.862L77.117 104.728L77.117 104.728L77.617 103.862ZM75.1419 102.143L74.5045 102.914L74.5045 102.914L75.1419 102.143ZM72.695 101.885L72.195 101.019L72.195 101.019L72.695 101.885ZM71.0575 102.831L71.5575 103.697L71.5576 103.697L71.0575 102.831ZM68.325 102.099L67.4589 102.599L67.4589 102.599L68.325 102.099ZM65.5564 97.3027L66.4224 96.8028L66.4224 96.8028L65.5564 97.3027ZM66.2883 94.5702L65.7882 93.7042L65.7881 93.7042L66.2883 94.5702ZM67.9308 93.6218L68.4308 94.4878L68.4309 94.4877L67.9308 93.6218ZM68.9298 91.3738L67.9441 91.5421V91.5421L68.9298 91.3738ZM68.9255 85.3735L69.9114 85.5411L69.9114 85.5411L68.9255 85.3735ZM67.926 83.1241L68.4262 82.2582L68.426 82.2581L67.926 83.1241ZM65.5567 79.4468L64.6906 78.9468L64.6906 78.9469L65.5567 79.4468ZM68.3257 74.6507L67.4597 74.1507L68.3257 74.6507ZM71.0577 73.9186L71.5577 73.0526L71.0577 73.9186ZM72.6951 74.8639L72.1951 75.7299L72.1952 75.73L72.6951 74.8639ZM75.1433 74.604L74.5051 73.8341L74.5051 73.8341L75.1433 74.604ZM80.342 71.6053L80.6893 72.5431L80.6893 72.5431L80.342 71.6053ZM81.7901 69.6167L80.7901 69.6164L80.7901 69.6166L81.7901 69.6167ZM81.7906 67.7213L82.7906 67.7216L82.7906 67.7215L81.7906 67.7213ZM83.7906 65.7221L83.7906 66.7221L83.7906 66.7221L83.7906 65.7221ZM89.3274 65.7219L89.3274 64.7219L89.3274 64.7219L89.3274 65.7219ZM91.328 67.7215L92.328 67.7216L92.328 67.7214L91.328 67.7215ZM91.3279 69.6125L90.3279 69.6124L90.3279 69.6125L91.3279 69.6125ZM92.7739 71.602L92.4248 72.5391L92.425 72.5392L92.7739 71.602ZM95.5003 72.8875L96.0003 72.0215L96.0003 72.0215L95.5003 72.8875ZM97.9759 74.6055L97.3388 75.3762L97.3388 75.3762L97.9759 74.6055ZM100.421 74.8638L100.921 75.73L100.921 75.7299L100.421 74.8638ZM91.1629 80.4001L91.6629 79.5341L91.6629 79.534L91.1629 80.4001ZM78.1345 83.8918L77.2685 83.3917L77.2685 83.3918L78.1345 83.8918ZM81.6248 96.9205L81.1248 97.7865L81.1248 97.7866L81.6248 96.9205ZM94.6541 93.4294L95.5201 93.9294L95.5202 93.9293L94.6541 93.4294ZM102.06 73.9178L102.56 74.784C103.039 74.5078 103.65 74.6718 103.926 75.1495L104.792 74.6493L105.658 74.149C104.829 72.7145 102.995 72.224 101.56 73.0517L102.06 73.9178ZM104.792 74.6493L103.926 75.1493L106.695 79.9462L107.561 79.4462L108.428 78.9462L105.658 74.1493L104.792 74.6493ZM107.561 79.4462L106.695 79.9462C106.972 80.4249 106.808 81.0368 106.33 81.3126L106.83 82.1787L107.329 83.0448C108.765 82.2163 109.256 80.3808 108.428 78.9462L107.561 79.4462ZM106.83 82.1787L106.33 81.3124L104.687 82.2594L105.187 83.1258L105.686 83.9922L107.329 83.0451L106.83 82.1787ZM105.187 83.1258L104.687 82.2597C103.504 82.9426 102.989 84.2941 103.202 85.5434L104.188 85.3751L105.174 85.2068C105.084 84.6832 105.312 84.2082 105.687 83.9918L105.187 83.1258ZM104.188 85.3751L103.202 85.5434C103.52 87.4015 103.528 89.3167 103.206 91.2078L104.192 91.3755L105.178 91.5431C105.538 89.4261 105.528 87.2836 105.174 85.2068L104.188 85.3751ZM104.192 91.3755L103.207 91.2078C102.994 92.4566 103.508 93.8083 104.691 94.4916L105.191 93.6256L105.691 92.7597C105.317 92.5433 105.089 92.0679 105.178 91.5431L104.192 91.3755ZM105.191 93.6256L104.691 94.4917L106.33 95.4375L106.83 94.5714L107.33 93.7054L105.691 92.7596L105.191 93.6256ZM106.83 94.5714L106.329 95.4375C106.808 95.7136 106.972 96.3252 106.696 96.8035L107.562 97.3035L108.428 97.8035C109.256 96.3686 108.764 94.5338 107.33 93.7054L106.83 94.5714ZM107.562 97.3035L106.696 96.8035L103.926 101.6L104.793 102.1L105.659 102.6L108.428 97.8035L107.562 97.3035ZM104.793 102.1L103.927 101.6C103.65 102.078 103.039 102.242 102.56 101.966L102.06 102.832L101.56 103.698C102.995 104.526 104.83 104.034 105.658 102.6L104.793 102.1ZM102.06 102.832L102.56 101.966L100.922 101.02L100.422 101.886L99.9223 102.752L101.56 103.698L102.06 102.832ZM100.422 101.886L100.922 101.02C99.7394 100.337 98.3123 100.566 97.3365 101.375L97.9746 102.145L98.6126 102.915C99.022 102.576 99.5472 102.535 99.9224 102.752L100.422 101.886ZM97.9746 102.145L97.3365 101.375C95.8595 102.599 94.1966 103.549 92.4289 104.204L92.7759 105.141L93.123 106.079C95.099 105.348 96.9593 104.285 98.6127 102.915L97.9746 102.145ZM92.7759 105.141L92.4289 104.204C91.2403 104.643 90.3281 105.765 90.3278 107.13L91.3278 107.13L92.3278 107.13C92.3279 106.698 92.6253 106.263 93.123 106.079L92.7759 105.141ZM91.3278 107.13L90.3278 107.13L90.3277 109.027L91.3277 109.027L92.3277 109.027L92.3278 107.13L91.3278 107.13ZM91.3277 109.027L90.3277 109.027C90.3277 109.579 89.8797 110.027 89.3279 110.027L89.3281 111.027L89.3283 112.027C90.9853 112.027 92.3277 110.683 92.3277 109.027L91.3277 109.027ZM89.3281 111.027L89.328 110.027L83.7899 110.028L83.79 111.028L83.79 112.028L89.3282 112.027L89.3281 111.027ZM83.79 111.028L83.7899 110.028C83.2379 110.028 82.7898 109.58 82.7898 109.027L81.7898 109.027L80.7898 109.027C80.7898 110.684 82.1327 112.028 83.79 112.028L83.79 111.028ZM81.7898 109.027L82.7898 109.027L82.79 107.137L81.79 107.136L80.79 107.136L80.7898 109.027L81.7898 109.027ZM81.79 107.136L82.79 107.136C82.7901 105.772 81.8784 104.65 80.6918 104.209L80.3431 105.146L79.9945 106.084C80.4926 106.269 80.79 106.704 80.79 107.136L81.79 107.136ZM80.3431 105.146L80.6918 104.209C79.8159 103.883 78.9547 103.48 78.117 102.996L77.617 103.862L77.117 104.728C78.0518 105.268 79.0143 105.719 79.9945 106.084L80.3431 105.146ZM77.617 103.862L78.117 102.996C77.2794 102.513 76.4994 101.969 75.7793 101.373L75.1419 102.143L74.5045 102.914C75.3104 103.581 76.1823 104.189 77.117 104.728L77.617 103.862ZM75.1419 102.143L75.7793 101.373C74.8037 100.566 73.3771 100.337 72.195 101.019L72.695 101.885L73.1951 102.751C73.5697 102.535 74.095 102.575 74.5045 102.914L75.1419 102.143ZM72.695 101.885L72.195 101.019L70.5574 101.965L71.0575 102.831L71.5576 103.697L73.1951 102.751L72.695 101.885ZM71.0575 102.831L70.5575 101.965C70.0789 102.241 69.467 102.077 69.191 101.599L68.325 102.099L67.4589 102.599C68.2875 104.034 70.1229 104.525 71.5575 103.697L71.0575 102.831ZM68.325 102.099L69.191 101.599L66.4224 96.8028L65.5564 97.3027L64.6903 97.8027L67.4589 102.599L68.325 102.099ZM65.5564 97.3027L66.4224 96.8028C66.1463 96.3245 66.3104 95.7123 66.7884 95.4361L66.2883 94.5702L65.7881 93.7042C64.3536 94.5328 63.8622 96.3681 64.6903 97.8027L65.5564 97.3027ZM66.2883 94.5702L66.7883 95.4362L68.4308 94.4878L67.9308 93.6218L67.4307 92.7558L65.7882 93.7042L66.2883 94.5702ZM67.9308 93.6218L68.4309 94.4877C69.6125 93.8053 70.1289 92.4556 69.9155 91.2056L68.9298 91.3738L67.9441 91.5421C68.0332 92.0645 67.806 92.539 67.4306 92.7559L67.9308 93.6218ZM68.9298 91.3738L69.9155 91.2056C69.5984 89.3475 69.5897 87.4321 69.9114 85.5411L68.9255 85.3735L67.9397 85.2058C67.5796 87.3228 67.5896 89.4654 67.9441 91.5421L68.9298 91.3738ZM68.9255 85.3735L69.9114 85.5411C70.1237 84.2917 69.6087 82.9412 68.4262 82.2582L67.926 83.1241L67.4259 83.9901C67.8011 84.2068 68.0287 84.6818 67.9397 85.2059L68.9255 85.3735ZM67.926 83.1241L68.426 82.2581L66.7887 81.3128L66.2887 82.1788L65.7887 83.0448L67.426 83.9902L67.926 83.1241ZM66.2887 82.1788L66.7887 81.3128C66.3106 81.0367 66.1466 80.4251 66.4227 79.9467L65.5567 79.4468L64.6906 78.9469C63.8624 80.3816 64.3538 82.2164 65.7887 83.0448L66.2887 82.1788ZM65.5567 79.4468L66.4227 79.9468L69.1917 75.1507L68.3257 74.6507L67.4597 74.1507L64.6906 78.9468L65.5567 79.4468ZM68.3257 74.6507L69.1917 75.1507C69.4679 74.6724 70.0795 74.5085 70.5577 74.7846L71.0577 73.9186L71.5577 73.0526C70.1229 72.2241 68.2881 72.7158 67.4597 74.1507L68.3257 74.6507ZM71.0577 73.9186L70.5577 74.7846L72.1951 75.7299L72.6951 74.8639L73.1951 73.9979L71.5577 73.0526L71.0577 73.9186ZM72.6951 74.8639L72.1952 75.73C73.3785 76.413 74.8061 76.1824 75.7815 75.3738L75.1433 74.604L74.5051 73.8341C74.0954 74.1737 73.5698 74.2141 73.195 73.9978L72.6951 74.8639ZM75.1433 74.604L75.7815 75.3738C77.2588 74.1491 78.9217 73.1976 80.6893 72.5431L80.342 71.6053L79.9948 70.6675C78.0184 71.3993 76.1583 72.4636 74.5051 73.8341L75.1433 74.604ZM80.342 71.6053L80.6893 72.5431C81.8775 72.1031 82.79 70.9824 82.7901 69.6167L81.7901 69.6167L80.7901 69.6166C80.7901 70.0491 80.4929 70.4831 79.9948 70.6675L80.342 71.6053ZM81.7901 69.6167L82.7901 69.6169L82.7906 67.7216L81.7906 67.7213L80.7906 67.7211L80.7901 69.6164L81.7901 69.6167ZM81.7906 67.7213L82.7906 67.7215C82.7907 67.1695 83.2382 66.722 83.7906 66.7221L83.7906 65.7221L83.7906 64.7221C82.1342 64.722 80.7909 66.0643 80.7906 67.7212L81.7906 67.7213ZM83.7906 65.7221L83.7906 66.7221L89.3274 66.7219L89.3274 65.7219L89.3274 64.7219L83.7906 64.7221L83.7906 65.7221ZM89.3274 65.7219L89.3274 66.7219C89.8801 66.7219 90.328 67.1699 90.328 67.7217L91.328 67.7215L92.328 67.7214C92.3278 66.0643 90.9836 64.7219 89.3274 64.7219L89.3274 65.7219ZM91.328 67.7215L90.328 67.7214L90.3279 69.6124L91.3279 69.6125L92.3279 69.6126L92.328 67.7216L91.328 67.7215ZM91.3279 69.6125L90.3279 69.6125C90.3279 70.9771 91.2389 72.0974 92.4248 72.5391L92.7739 71.602L93.1229 70.6649C92.6249 70.4794 92.3279 70.0449 92.3279 69.6124L91.3279 69.6125ZM92.7739 71.602L92.425 72.5392C93.3006 72.8652 94.1621 73.2696 95.0003 73.7535L95.5003 72.8875L96.0003 72.0215C95.0659 71.482 94.1033 71.0299 93.1228 70.6649L92.7739 71.602ZM95.5003 72.8875L95.0003 73.7535C95.8383 74.2373 96.6188 74.7809 97.3388 75.3762L97.9759 74.6055L98.6131 73.8348C97.8069 73.1682 96.9346 72.5608 96.0003 72.0215L95.5003 72.8875ZM97.9759 74.6055L97.3388 75.3762C98.3138 76.1822 99.7391 76.4121 100.921 75.73L100.421 74.8638L99.9217 73.9977C99.5475 74.2136 99.023 74.1736 98.6131 73.8347L97.9759 74.6055ZM100.421 74.8638L100.921 75.7299L102.56 74.7839L102.06 73.9178L101.56 73.0518L99.9216 73.9977L100.421 74.8638ZM91.1629 80.4001L91.6629 79.534C86.6227 76.6243 80.1784 78.352 77.2685 83.3917L78.1345 83.8918L79.0005 84.3918C81.3583 80.3083 86.5796 78.9088 90.663 81.2661L91.1629 80.4001ZM78.1345 83.8918L77.2685 83.3918C74.3586 88.4318 76.0848 94.8764 81.1248 97.7865L81.6248 96.9205L82.1249 96.0545C78.0415 93.6968 76.6429 88.4754 79.0005 84.3918L78.1345 83.8918ZM81.6248 96.9205L81.1248 97.7866C86.1651 100.697 92.6102 98.9696 95.5201 93.9294L94.6541 93.4294L93.7881 92.9294C91.4304 97.013 86.2085 98.4122 82.1248 96.0545L81.6248 96.9205ZM94.6541 93.4294L95.5202 93.9293C98.4299 88.8892 96.7031 82.444 91.6629 79.5341L91.1629 80.4001L90.6629 81.2661C94.7464 83.6237 96.1456 88.8458 93.7881 92.9294L94.6541 93.4294Z" fill="currentColor"/>
</svg>
