<svg width="128" height="128" viewBox="0 0 128 128" fill="none" xmlns="http://www.w3.org/2000/svg">
<rect x="1" y="1" width="126" height="126" rx="19" fill="currentColor" fill-opacity="0.25" stroke="currentColor" stroke-width="2"/>
<path fill-rule="evenodd" clip-rule="evenodd" d="M24 41.5L44 30.25L64 19L84 30.25L104 41.5L94 47.125L79 38.6875L64 30.25L49 38.6875L34 47.125L24 41.5ZM94 80.875L83.4364 74.933L64 85.866L44.5636 74.933L34 80.875L49 89.3125L64 97.75L79 89.3125L94 80.875ZM64 42.134L44.5636 53.067L64 64L83.4364 53.067L64 42.134Z" fill="currentColor" fill-opacity="0.25"/>
<path d="M24 41.5V64V86.5L44 97.75L64 109L84 97.75L104 86.5V64V41.5L84 30.25L64 19L44 30.25L24 41.5ZM104 41.5L94 47.125M64 109L64 97.75M24 41.5L34 47.125M64 97.75L49 89.3125L34 80.875V47.125M34 47.125L64 30.25M34 47.125L34 64L34 80.875M94 47.125L79 38.6875L64 30.25L49 38.6875L34 47.125M64 30.25L94 47.125M64 30.25L64 42.134M64 97.75L79 89.3125L94 80.875V64V47.125M94 80.875L64 97.75M94 80.875L83.4364 74.933M64 97.75L34 80.875M34 80.875L44.5636 74.933M64 42.134L44.5636 53.067V74.933M44.5636 53.067L64 64M83.4364 74.933V53.067L64 42.134M83.4364 53.067L64 64M44.5636 74.933L64 85.866L83.4364 74.933M64 85.866V64" stroke="currentColor" stroke-width="2" stroke-linejoin="round"/>
</svg>
