<svg width="128" height="128" viewBox="0 0 128 128" fill="none" xmlns="http://www.w3.org/2000/svg">
<path d="M90.4907 28.7281L64.7298 14L38.9689 28.7281L64.7298 43.4563L90.4907 28.7281Z" fill="#6AAE6F" fill-opacity="0.25"/>
<path d="M38.9689 58.1845L64.7298 72.9126V43.4563L38.9689 28.7281V58.1845Z" fill="#6AAE6F"/>
<path d="M90.4907 58.1845V28.7281L64.7298 43.4563V72.9126L90.4907 58.1845Z" fill="#6AAE6F" fill-opacity="0.5"/>
<path d="M11 87.4894V105.163L26.4565 114L41.9131 105.163V87.4894L26.4565 78.6525L11 87.4894ZM41.9131 87.4894L26.4565 96.3262M26.4565 114V96.3262M11 87.4894L26.4565 96.3262" stroke="#6AAE6F" stroke-width="2" stroke-linejoin="round"/>
<path d="M86.0746 87.4894V105.163L101.531 114L116.988 105.163V87.4894L101.531 78.6525L86.0746 87.4894ZM116.988 87.4894L101.531 96.3262M101.531 114V96.3262M86.0746 87.4894L101.531 96.3262" stroke="#6AAE6F" stroke-width="2" stroke-linejoin="round"/>
<path d="M77.4436 96.6703H52.0066" stroke="#6AAE6F" stroke-width="2" stroke-linecap="round"/>
<path d="M64.7251 77.5927V96.6704" stroke="#6AAE6F" stroke-width="2" stroke-linecap="round"/>
</svg>
