<svg width="128" height="128" viewBox="0 0 128 128" fill="none" xmlns="http://www.w3.org/2000/svg">
<path d="M39.0124 28.5543V58.0106L64.7733 72.7388L90.5342 58.0106V28.5543L64.7733 13.8262L39.0124 28.5543ZM90.5342 28.5543L64.7733 43.2825M64.7733 72.7388V43.2825M39.0124 28.5543L64.7733 43.2825" stroke="currentColor" stroke-width="4" stroke-linejoin="round"/>
<path d="M11.0435 105.337L26.5 114.174V96.5L11.0435 87.6631V105.337Z" fill="currentColor"/>
<path d="M41.9565 105.337V87.6631L26.5 96.5V114.174L41.9565 105.337Z" fill="currentColor" fill-opacity="0.5"/>
<path d="M41.9565 87.6631L26.5 78.8262L11.0435 87.6631L26.5 96.5L41.9565 87.6631Z" fill="currentColor" fill-opacity="0.25"/>
<path d="M86.0435 105.337L101.5 114.174V96.5L86.0435 87.6631V105.337Z" fill="currentColor"/>
<path d="M116.957 105.337V87.6631L101.5 96.5V114.174L116.957 105.337Z" fill="currentColor" fill-opacity="0.5"/>
<path d="M116.957 87.6631L101.5 78.8262L86.0435 87.6631L101.5 96.5L116.957 87.6631Z" fill="currentColor" fill-opacity="0.25"/>
<path d="M77.4871 96.4965H52.0501" stroke="currentColor" stroke-width="2" stroke-linecap="round"/>
<path d="M64.7686 82.8262V96.4966" stroke="currentColor" stroke-width="2" stroke-linecap="round"/>
</svg>
