<svg width="128" height="128" viewBox="0 0 128 128" fill="none" xmlns="http://www.w3.org/2000/svg">
<rect x="1" y="1" width="126" height="126" rx="19" fill="currentColor" fill-opacity="0.25" stroke="currentColor" stroke-width="2"/>
<circle cx="64" cy="54" r="26" fill="currentColor" fill-opacity="0.25" stroke="currentColor" stroke-width="2"/>
<path d="M79.501 75.1572L85.6646 81.321L91.2764 86.933L99.6716 95.3286C101.234 96.8908 103.767 96.8906 105.329 95.3285C106.891 93.7664 106.891 91.2336 105.329 89.6715L96.9331 81.2758L91.3211 75.6638L85.1572 69.5" stroke="currentColor" stroke-width="2" stroke-linecap="round"/>
<path d="M91.3208 74.6638C91.586 74.6638 91.8403 74.7693 92.0278 74.9568L106.036 88.9646C107.988 90.9173 107.988 94.0833 106.036 96.0359C104.083 97.9883 100.917 97.9886 98.9644 96.0359L90.5688 87.6404L84.9575 82.0281C84.567 81.6376 84.567 81.0045 84.9575 80.614L90.6138 74.9568C90.8013 74.7693 91.0556 74.6639 91.3208 74.6638Z" fill="currentColor" stroke="currentColor" stroke-width="2" stroke-linecap="round" stroke-linejoin="round"/>
<path d="M44.8184 35C44.188 35.6363 43.5893 36.3038 43.0244 37H22C20.3431 37 19 38.3431 19 40V68C19 69.6569 20.3431 71 22 71H43.0244C43.5893 71.6962 44.188 72.3637 44.8184 73H22C19.2386 73 17 70.7614 17 68V40C17 37.2386 19.2386 35 22 35H44.8184ZM106 35C108.761 35 111 37.2386 111 40V68C111 70.7614 108.761 73 106 73H83.1816C83.812 72.3637 84.4107 71.6962 84.9756 71H106C107.657 71 109 69.6569 109 68V40C109 38.3431 107.657 37 106 37H84.9756C84.4107 36.3038 83.812 35.6363 83.1816 35H106ZM33.3037 46.3164C35.1 46.3165 36.5805 46.9775 37.6094 48.2783C37.3231 49.6051 37.1342 50.9679 37.0508 52.3594C36.6415 49.6402 35.1864 48.2139 33.333 48.2139C30.7577 48.214 29.5 50.1163 29.5 54C29.5 58.098 30.9573 59.8455 33.333 59.8457C35.3509 59.8457 36.6885 58.6771 37.0605 55.7998C37.153 57.2047 37.3531 58.5799 37.6523 59.918C36.6545 61.1491 35.1958 61.7139 33.333 61.7139C29.6396 61.7137 27.5234 59.3235 27.5234 54C27.5235 48.8304 29.4305 46.3164 33.3037 46.3164ZM94.8906 46.2861C95.9087 46.2862 96.7206 46.4737 97.3262 46.8486C98.6237 47.6656 99.2559 48.8508 99.2227 50.4043C99.176 52.4934 98.3209 53.9974 96.6572 54.7607C95.1399 55.4572 93.9822 56.3916 93.1836 57.5635C92.4251 58.6749 92.0223 59.1661 91.9756 59.8154C94.0852 59.8221 96.1951 59.8292 98.3047 59.8359C99.0165 59.836 99.3689 60.1439 99.3623 60.7598C99.3557 61.4026 99.0066 61.7205 98.3145 61.7139H90.9971C90.5086 61.7138 90.2036 61.4774 90.0801 61.0049C90.3572 59.9707 90.5742 58.9122 90.7275 57.833C90.9401 57.4383 91.1976 57.0248 91.5059 56.5693C92.4043 55.277 93.7324 54.2019 95.4893 53.3447C96.6339 52.7889 97.2225 51.6998 97.2559 50.2334C97.2758 49.403 96.8999 48.7906 96.1279 48.3955C95.3759 48.0138 94.5973 47.9527 93.792 48.2139C93.3129 48.3746 92.7004 48.8903 91.9551 49.7607C91.5394 50.2402 91.1356 50.4125 90.7432 50.2783C90.6634 49.6997 90.567 49.1268 90.4512 48.5605C91.1261 47.7578 91.7105 47.2103 92.2051 46.9189C92.9105 46.4971 93.8058 46.2861 94.8906 46.2861Z" fill="currentColor"/>
<path d="M80.9697 75C80.0739 75.7248 79.1306 76.3929 78.1455 77H49.8545C48.8694 76.3929 47.9261 75.7248 47.0303 75H80.9697ZM46.333 74.418C45.6335 73.8122 44.9668 73.1698 44.333 72.4961V35.5029C44.9668 34.8293 45.6335 34.1868 46.333 33.5811V74.418ZM82.667 34.4932C83.3713 35.1673 84.0388 35.8795 84.667 36.626V71.373C84.0388 72.1195 83.3713 72.8316 82.667 73.5059V34.4932ZM63.3896 44.1328C64.0634 43.4968 64.6834 43.246 65.249 43.3799C65.7064 43.4804 65.9311 43.9072 65.9229 44.6602C65.9229 44.6602 65.8976 49.5061 65.8477 60.8447H67.208C68.0648 60.8447 68.4931 61.2343 68.4932 62.0127C68.4932 62.766 68.077 63.1426 67.2451 63.1426H61.5801C60.8315 63.1425 60.457 62.791 60.457 62.0879C60.4654 61.251 60.8816 60.832 61.7051 60.832H63.5645L63.5889 47.2852L62.666 48.1641C61.8758 48.9257 61.2096 48.9377 60.6689 48.2012C60.2367 47.6154 60.3159 47.0421 60.9062 46.4814L63.3896 44.1328ZM76.3789 30C77.5209 30.5902 78.6156 31.2588 79.6553 32H48.3447C49.3844 31.2588 50.4791 30.5902 51.6211 30H76.3789Z" fill="currentColor"/>
</svg>
