<svg width="128" height="128" viewBox="0 0 128 128" fill="none" xmlns="http://www.w3.org/2000/svg">
<g clip-path="url(#clip0_4_66)">
<rect x="1" y="1" width="126" height="126" rx="19" fill="#6AAE6F" fill-opacity="0.25" stroke="#6AAE6F" stroke-width="2"/>
<path d="M20.75 51.5469L31.5938 51.4844C33.0625 51.474 33.8125 52.0729 33.8438 53.2812C33.875 54.2396 33.1562 54.7188 31.6875 54.7188C28.2396 54.7396 24.7969 54.7604 21.3594 54.7812L21.2188 60.375L29.8594 60.3281C31.3281 60.3177 32.0781 60.9115 32.1094 62.1094C32.1406 63.0573 31.4219 63.5417 29.9531 63.5625L21.1562 63.6094L20.9375 72.3906L30.625 72.3438C32.0938 72.3333 32.8438 72.9271 32.875 74.125C32.9062 75.0833 32.1875 75.5677 30.7188 75.5781L19.7812 75.6406C19.6562 75.6406 19.5417 75.6302 19.4375 75.6094C19.3542 75.6094 19.2708 75.6094 19.1875 75.6094C18.25 75.5885 17.7969 75.0573 17.8281 74.0156L18.3438 52.875C18.3646 51.9896 18.8542 51.5417 19.8125 51.5312C20.0312 51.5312 20.224 51.5469 20.3906 51.5781C20.5052 51.5573 20.625 51.5469 20.75 51.5469ZM38.1562 59.4062L47.25 59.375C48.4375 59.375 49.0312 59.8438 49.0312 60.7812C49.0312 61.7396 48.4635 62.2188 47.3281 62.2188L38.0156 62.2031C37.1927 62.2031 36.7812 61.75 36.7812 60.8438C36.7812 59.8854 37.2396 59.4062 38.1562 59.4062ZM38.0156 67.875L47.1094 67.8438C48.2865 67.8438 48.8802 68.3125 48.8906 69.25C48.8906 70.2083 48.3281 70.6875 47.2031 70.6875L37.8906 70.6719C37.0677 70.6719 36.6562 70.2188 36.6562 69.3125C36.6562 68.3542 37.1094 67.875 38.0156 67.875ZM55.2188 57.9062C56.3021 57.9062 56.8333 58.4219 56.8125 59.4531L56.7969 60.0938C57.724 59.2604 58.8542 58.8385 60.1875 58.8281C62.3542 58.8073 63.8177 59.5729 64.5781 61.125C65.6406 59.5833 67.2396 58.8177 69.375 58.8281C73.3229 58.8385 75.2604 61.2135 75.1875 65.9531L75.0625 73.7188C75.0417 74.9792 74.5417 75.651 73.5625 75.7344C72.4375 75.8385 71.8854 75.2604 71.9062 74L72 66.7969C72.0417 63.7135 71.2396 62.151 69.5938 62.1094C67.6875 62.0573 66.3906 62.9271 65.7031 64.7188C65.6719 64.75 65.651 65.0677 65.6406 65.6719L65.4531 73.5C65.4219 74.7604 64.9219 75.4323 63.9531 75.5156C62.8802 75.6094 62.3594 75.0312 62.3906 73.7812L62.5469 66.6094C62.6094 63.6406 61.8385 62.1302 60.2344 62.0781C58.4323 62.0156 57.25 63.0677 56.6875 65.2344L56.4219 73.875C56.3906 75.0104 55.8333 75.5677 54.75 75.5469C53.8125 75.526 53.3594 74.9583 53.3906 73.8438L53.75 59.3594C53.7708 58.3906 54.2604 57.9062 55.2188 57.9062ZM89.1406 71.7031C90.0573 71.0885 90.8073 71.2708 91.3906 72.25C91.7344 72.8333 91.4635 73.5156 90.5781 74.2969C89.4323 75.276 87.6302 75.7604 85.1719 75.75C83.2344 75.7396 81.625 75.1146 80.3438 73.875C78.75 72.3333 77.9531 70.401 77.9531 68.0781C77.9531 65.5156 78.5208 63.4167 79.6562 61.7812C81.0312 59.7917 82.7812 58.7188 84.9062 58.5625C86.1458 58.4688 87.276 58.5885 88.2969 58.9219C89.5573 59.349 90.3958 59.8854 90.8125 60.5312C91.4479 61.5312 91.4115 62.2865 90.7031 62.7969C90.2135 63.151 89.4635 62.9531 88.4531 62.2031C87.2344 61.2969 85.8542 61.0885 84.3125 61.5781C83.4479 61.849 82.6667 62.4844 81.9688 63.4844C81.1771 64.6302 80.7656 65.9427 80.7344 67.4219C80.7031 68.8177 81.1094 70.0938 81.9531 71.25C82.724 72.2812 83.7969 72.8229 85.1719 72.875C86.5885 72.9271 87.9115 72.5365 89.1406 71.7031ZM101.719 58.5312L106.625 58.4219C107.75 58.401 108.312 58.776 108.312 59.5469C108.312 60.3698 107.75 60.7812 106.625 60.7812H100.641C99.3177 60.7812 98.7396 60.1146 98.9062 58.7812C99.1354 56.9896 100.281 55.5417 102.344 54.4375C104.281 53.3958 105.302 52.5365 105.406 51.8594C105.562 50.9531 105.193 50.3438 104.297 50.0312C103.641 49.8021 103.026 49.849 102.453 50.1719C101.922 50.474 101.432 50.9375 100.984 51.5625C100.526 52.2083 99.9896 52.3646 99.375 52.0312C98.6146 51.625 98.4583 51.0781 98.9062 50.3906C99.5417 49.3906 100.271 48.651 101.094 48.1719C101.781 47.7656 102.833 47.6354 104.25 47.7812C105.281 47.8854 106.198 48.3854 107 49.2812C107.604 49.9479 107.854 50.8854 107.75 52.0938C107.604 53.6979 106.552 55.026 104.594 56.0781C102.698 57.1094 101.74 57.9271 101.719 58.5312Z" fill="#6AAE6F"/>
</g>
<defs>
<clipPath id="clip0_4_66">
<rect width="128" height="128" fill="white"/>
</clipPath>
</defs>
</svg>
