<svg width="128" height="128" viewBox="0 0 128 128" fill="none" xmlns="http://www.w3.org/2000/svg">
<g clip-path="url(#clip-variable)">
<rect x="1" y="1" width="126" height="126" rx="19" fill="currentColor" fill-opacity="0.25" stroke="currentColor" stroke-width="2"/>
<path d="M25.6719 51.5469L36.5156 51.4844C37.9844 51.474 38.7344 52.0729 38.7656 53.2812C38.7969 54.2396 38.0781 54.7188 36.6094 54.7188C33.1615 54.7396 29.7188 54.7604 26.2812 54.7812L26.1406 60.375L34.7812 60.3281C36.25 60.3177 37 60.9115 37.0312 62.1094C37.0625 63.0573 36.3438 63.5417 34.875 63.5625L26.0781 63.6094L25.8594 72.3906L35.5469 72.3438C37.0156 72.3333 37.7656 72.9271 37.7969 74.125C37.8281 75.0833 37.1094 75.5677 35.6406 75.5781L24.7031 75.6406C24.5781 75.6406 24.4635 75.6302 24.3594 75.6094C24.276 75.6094 24.1927 75.6094 24.1094 75.6094C23.1719 75.5885 22.7188 75.0573 22.75 74.0156L23.2656 52.875C23.2865 51.9896 23.776 51.5417 24.7344 51.5312C24.9531 51.5312 25.1458 51.5469 25.3125 51.5781C25.4271 51.5573 25.5469 51.5469 25.6719 51.5469ZM43.0781 59.4062L52.1719 59.375C53.3594 59.375 53.9531 59.8438 53.9531 60.7812C53.9531 61.7396 53.3854 62.2188 52.25 62.2188L42.9375 62.2031C42.1146 62.2031 41.7031 61.75 41.7031 60.8438C41.7031 59.8854 42.1615 59.4062 43.0781 59.4062ZM42.9375 67.875L52.0312 67.8438C53.2083 67.8438 53.8021 68.3125 53.8125 69.25C53.8125 70.2083 53.25 70.6875 52.125 70.6875L42.8125 70.6719C41.9896 70.6719 41.5781 70.2188 41.5781 69.3125C41.5781 68.3542 42.0312 67.875 42.9375 67.875ZM60.1406 57.9062C61.224 57.9062 61.7552 58.4219 61.7344 59.4531L61.7188 60.0938C62.6458 59.2604 63.776 58.8385 65.1094 58.8281C67.276 58.8073 68.7396 59.5729 69.5 61.125C70.5625 59.5833 72.1615 58.8177 74.2969 58.8281C78.2448 58.8385 80.1823 61.2135 80.1094 65.9531L79.9844 73.7188C79.9635 74.9792 79.4635 75.651 78.4844 75.7344C77.3594 75.8385 76.8073 75.2604 76.8281 74L76.9219 66.7969C76.9635 63.7135 76.1615 62.151 74.5156 62.1094C72.6094 62.0573 71.3125 62.9271 70.625 64.7188C70.5938 64.75 70.5729 65.0677 70.5625 65.6719L70.375 73.5C70.3438 74.7604 69.8438 75.4323 68.875 75.5156C67.8021 75.6094 67.2812 75.0312 67.3125 73.7812L67.4688 66.6094C67.5312 63.6406 66.7604 62.1302 65.1562 62.0781C63.3542 62.0156 62.1719 63.0677 61.6094 65.2344L61.3438 73.875C61.3125 75.0104 60.7552 75.5677 59.6719 75.5469C58.7344 75.526 58.2812 74.9583 58.3125 73.8438L58.6719 59.3594C58.6927 58.3906 59.1823 57.9062 60.1406 57.9062ZM94.0625 71.7031C94.9792 71.0885 95.7292 71.2708 96.3125 72.25C96.6562 72.8333 96.3854 73.5156 95.5 74.2969C94.3542 75.276 92.5521 75.7604 90.0938 75.75C88.1562 75.7396 86.5469 75.1146 85.2656 73.875C83.6719 72.3333 82.875 70.401 82.875 68.0781C82.875 65.5156 83.4427 63.4167 84.5781 61.7812C85.9531 59.7917 87.7031 58.7188 89.8281 58.5625C91.0677 58.4688 92.1979 58.5885 93.2188 58.9219C94.4792 59.349 95.3177 59.8854 95.7344 60.5312C96.3698 61.5312 96.3333 62.2865 95.625 62.7969C95.1354 63.151 94.3854 62.9531 93.375 62.2031C92.1562 61.2969 90.776 61.0885 89.2344 61.5781C88.3698 61.849 87.5885 62.4844 86.8906 63.4844C86.099 64.6302 85.6875 65.9427 85.6562 67.4219C85.625 68.8177 86.0312 70.0938 86.875 71.25C87.6458 72.2812 88.7188 72.8229 90.0938 72.875C91.5104 72.9271 92.8333 72.5365 94.0625 71.7031Z" fill="currentColor"/>
<path d="M101.891 58.5312L106.797 58.4219C107.922 58.401 108.484 58.776 108.484 59.5469C108.484 60.3698 107.922 60.7812 106.797 60.7812H100.812C99.4896 60.7812 98.9115 60.1146 99.0781 58.7812C99.3073 56.9896 100.453 55.5417 102.516 54.4375C104.453 53.3958 105.474 52.5365 105.578 51.8594C105.734 50.9531 105.365 50.3438 104.469 50.0312C103.812 49.8021 103.198 49.849 102.625 50.1719C102.094 50.474 101.604 50.9375 101.156 51.5625C100.698 52.2083 100.161 52.3646 99.5469 52.0312C98.7865 51.625 98.6302 51.0781 99.0781 50.3906C99.7135 49.3906 100.443 48.651 101.266 48.1719C101.953 47.7656 103.005 47.6354 104.422 47.7812C105.453 47.8854 106.37 48.3854 107.172 49.2812C107.776 49.9479 108.026 50.8854 107.922 52.0938C107.776 53.6979 106.724 55.026 104.766 56.0781C102.87 57.1094 101.911 57.9271 101.891 58.5312Z" fill="currentColor"/>
</g>
<defs>
<clipPath id="clip-variable">
<rect width="128" height="128" fill="white"/>
</clipPath>
</defs>
</svg>
