<svg width="128" height="128" viewBox="0 0 128 128" fill="none" xmlns="http://www.w3.org/2000/svg">
<g clip-path="url(#clip-warning)">
<rect x="1" y="1" width="126" height="126" rx="19" fill="currentColor" fill-opacity="0.25" stroke="currentColor" stroke-width="2"/>
<path d="M102.929 88.0077L70.9545 32.0524C70.2574 30.8222 69.2463 29.7989 68.0246 29.087C66.8028 28.3751 65.4141 28 64.0001 28C62.5861 28 61.1973 28.3751 59.9756 29.087C58.7539 29.7989 57.7428 30.8222 57.0456 32.0524L25.0711 88.0077C24.3664 89.2282 23.9969 90.6133 24 92.0226C24.0031 93.4319 24.3788 94.8153 25.0889 96.0326C25.799 97.25 26.8183 98.2579 28.0435 98.9543C29.2688 99.6507 30.6563 100.011 32.0656 99.9982H96.0146C97.417 99.9967 98.7945 99.6263 100.009 98.9242C101.223 98.222 102.23 97.2128 102.931 95.9978C103.632 94.7829 104 93.405 104 92.0025C104 90.6 103.63 89.2223 102.929 88.0077Z" stroke="currentColor" stroke-width="4" stroke-linecap="round" stroke-linejoin="round"/>
<path d="M64 48L64 72" stroke="currentColor" stroke-width="4" stroke-linecap="round" stroke-linejoin="round"/>
<circle cx="64" cy="84" r="1" fill="currentColor" stroke="currentColor" stroke-width="4"/>
</g>
<defs>
<clipPath id="clip-warning">
<rect width="128" height="128" fill="white"/>
</clipPath>
</defs>
</svg>
