<svg width="98" height="85" viewBox="0 0 98 85" fill="none" xmlns="http://www.w3.org/2000/svg">
<path d="M95 9.70093L95.1533 9.70874C95.9097 9.78559 96.5 10.4243 96.5 11.2009V68.0085C96.5 68.4272 96.3252 68.8271 96.0176 69.1111C95.7484 69.3595 95.3988 69.4998 95.0361 69.5085L94.8799 69.5037C94.8794 69.5036 94.8782 69.5038 94.877 69.5037L94.8184 69.4988C94.776 69.4955 94.712 69.4913 94.6279 69.4851C94.4598 69.4727 94.2104 69.4541 93.8877 69.4324C93.2415 69.3889 92.3013 69.3305 91.1328 69.2703C88.795 69.1497 85.5451 69.0234 81.8975 68.9988C74.5587 68.9493 65.7667 69.3153 59.5332 70.908C57.462 71.4372 56.065 72.1363 55.2109 72.6736C54.7832 72.9427 54.4884 73.1728 54.3115 73.324C54.223 73.3996 54.1638 73.4558 54.1318 73.4871C54.1159 73.5027 54.107 73.5127 54.1045 73.5154C54.1034 73.5165 54.1036 73.5155 54.1055 73.5134C54.1064 73.5124 54.1078 73.5112 54.1094 73.5095C54.1103 73.5085 54.1112 73.5068 54.1123 73.5056L54.0176 73.6023C53.9141 73.6979 53.7973 73.7783 53.6709 73.8416L53.6699 73.8425H53.6689L53.6631 73.8455C53.66 73.847 53.6562 73.8494 53.6523 73.8513L53.543 73.9021C53.4764 73.9318 53.3861 73.9703 53.2734 74.0144C53.0481 74.1026 52.7313 74.2131 52.332 74.322C51.5335 74.5398 50.4004 74.7498 49 74.7498C47.5996 74.7497 46.4664 74.5398 45.668 74.322C45.2687 74.2131 44.9519 74.1026 44.7266 74.0144C44.6139 73.9703 44.5235 73.9318 44.457 73.9021L44.3477 73.8513C44.3438 73.8494 44.34 73.847 44.3369 73.8455L44.3311 73.8425H44.3301C44.3296 73.8423 44.3292 73.8414 45 72.4998L44.3291 73.8416C44.1608 73.7574 44.0095 73.6427 43.8838 73.5027L43.8857 73.5046L43.8877 73.5056L43.8936 73.5134C43.8896 73.5093 43.8814 73.5001 43.8682 73.4871C43.8362 73.4558 43.777 73.3996 43.6885 73.324C43.5115 73.1727 43.2168 72.9427 42.7891 72.6736C41.935 72.1363 40.538 71.4372 38.4668 70.908C32.2333 69.3153 23.4414 68.9493 16.1025 68.9988C12.4549 69.0234 9.20498 69.1497 6.86719 69.2703C5.69867 69.3305 4.75847 69.3889 4.1123 69.4324C3.78956 69.4541 3.54016 69.4727 3.37207 69.4851C3.28799 69.4913 3.22397 69.4955 3.18164 69.4988L3.12305 69.5037H3.12012C2.70278 69.5371 2.29008 69.395 1.98242 69.1111C1.67485 68.8271 1.5 68.4272 1.5 68.0085V11.2009C1.5 10.3725 2.17163 9.70099 3 9.70093H95Z" fill="#222F36" stroke="#222F36" stroke-width="3" stroke-linejoin="round"/>
<path d="M70.9229 1.31445C79.2171 0.670542 84.803 1.11766 88.3428 1.74121C90.1127 2.05301 91.3714 2.4089 92.2012 2.69434C92.616 2.83704 92.9234 2.96263 93.1338 3.05566C93.2389 3.10217 93.3201 3.14027 93.3779 3.16895C93.4069 3.18328 93.4297 3.19588 93.4473 3.20508C93.456 3.20968 93.4637 3.21357 93.4697 3.2168C93.4726 3.21835 93.4753 3.21948 93.4775 3.2207C93.4786 3.22129 93.4795 3.22215 93.4805 3.22266L93.4824 3.22363C93.4809 3.22775 93.4505 3.28387 93 4.09961L93.4834 3.22363C93.8021 3.39964 94 3.73554 94 4.09961V63.8701C93.9999 64.2238 93.8134 64.5516 93.5088 64.7314C93.2059 64.9102 92.8312 64.9159 92.5225 64.748L92.5195 64.7471C92.515 64.7447 92.5047 64.7391 92.4893 64.7314C92.4577 64.7158 92.4035 64.6899 92.3252 64.6553C92.1678 64.5857 91.9132 64.4811 91.5508 64.3564C90.8259 64.1071 89.6687 63.7763 87.9951 63.4814C84.6474 62.8917 79.2327 62.4459 71.0771 63.0791C62.9805 63.7077 57.6146 65.652 54.2988 67.4043C52.6397 68.2811 51.4883 69.1123 50.7617 69.7129C50.3984 70.0132 50.1407 70.2566 49.9785 70.4189C49.8974 70.5001 49.8394 70.5616 49.8047 70.5996C49.7876 70.6184 49.7757 70.6316 49.7695 70.6387L49.7666 70.6406V70.6426C49.7666 70.6425 49.7665 70.6424 49.7656 70.6416L49.7646 70.6445C49.5747 70.8699 49.2949 71 49 71C48.7037 71 48.4224 70.8689 48.2324 70.6416V70.6406C48.2319 70.64 48.2311 70.6394 48.2305 70.6387C48.2243 70.6316 48.2125 70.6184 48.1953 70.5996C48.1606 70.5616 48.1026 70.5001 48.0215 70.4189C47.8593 70.2566 47.6015 70.0132 47.2383 69.7129C46.5117 69.1123 45.3603 68.2811 43.7012 67.4043C40.3854 65.652 35.0195 63.7077 26.9229 63.0791C18.7672 62.4459 13.3526 62.8917 10.0049 63.4814C8.33132 63.7763 7.17405 64.1071 6.44922 64.3564C6.0869 64.4811 5.83216 64.5857 5.6748 64.6553C5.59652 64.6899 5.54224 64.7158 5.51074 64.7314C5.49517 64.7392 5.48498 64.7447 5.48047 64.7471C5.47831 64.7482 5.47709 64.7483 5.47754 64.748L5.48145 64.7461H5.48242L5.48145 64.7451C5.17212 64.9153 4.79638 64.9107 4.49219 64.7314C4.18751 64.5517 4.00011 64.2239 4 63.8701V4.09961C4 3.73554 4.19791 3.39964 4.5166 3.22363L5 4.09961C4.54823 3.2816 4.51891 3.22748 4.51758 3.22363L4.51953 3.22266C4.52048 3.22214 4.52136 3.2213 4.52246 3.2207C4.5247 3.21949 4.5274 3.21834 4.53027 3.2168C4.53626 3.21358 4.54399 3.20966 4.55273 3.20508C4.57029 3.19589 4.59317 3.18327 4.62207 3.16895C4.67992 3.14027 4.76104 3.10217 4.86621 3.05566C5.07659 2.96263 5.38394 2.83706 5.79883 2.69434C6.62868 2.40888 7.88803 2.05304 9.6582 1.74121C13.198 1.11771 18.7834 0.670585 27.0771 1.31445C35.4301 1.96294 41.0641 3.97773 44.6357 5.86523C46.42 6.80818 47.6846 7.71687 48.5127 8.40137C48.6963 8.55313 48.8585 8.69375 49 8.82129C49.1415 8.69373 49.3037 8.55315 49.4873 8.40137C50.3154 7.71686 51.5799 6.80821 53.3643 5.86523C56.9359 3.97772 62.5698 1.96294 70.9229 1.31445Z" stroke="#222F36" stroke-width="2" stroke-linejoin="round"/>
<path d="M70.0001 61.5H84.5001V83L77.2501 79L70.0001 83V61.5Z" fill="#6AAE6F" stroke="#6AAE6F" stroke-width="4" stroke-linejoin="round"/>
<path d="M72.2582 66.1652C85.5243 64.8547 90.0001 68 90.0001 68V59H65.0001V67.6124C67.0558 66.9623 69.4617 66.4415 72.2582 66.1652Z" fill="#222F36" fill-opacity="0.63"/>
<path d="M5 4.09931V63.8698C5 63.8698 10.55 60.8047 27 62.0818C43.4501 63.3589 49.0001 70.0001 49.0001 70.0001C49.0001 70.0001 54.55 63.3589 71.0001 62.0818C87.4502 60.8047 93.0001 63.8698 93.0001 63.8698V4.09931C93.0001 4.09931 87.4502 1.03419 71.0001 2.3113C54.55 3.5884 49.0001 10.2296 49.0001 10.2296C49.0001 10.2296 43.4501 3.5884 27 2.3113C10.55 1.03419 5 4.09931 5 4.09931Z" fill="white"/>
<path d="M33.2501 24.25L21.5 34.25L33.2501 44.25" stroke="#6AAE6F" stroke-width="4" stroke-linecap="round" stroke-linejoin="round"/>
<path d="M64.75 44.25L76.5001 34.25L64.75 24.25" stroke="#6AAE6F" stroke-width="4" stroke-linecap="round" stroke-linejoin="round"/>
<path d="M55.0001 19.5L42.75 49.7501" stroke="#6AAE6F" stroke-width="4" stroke-linecap="round" stroke-linejoin="round"/>
</svg>
