<svg width="128" height="128" viewBox="0 0 128 128" fill="none" xmlns="http://www.w3.org/2000/svg">
<rect width="128" height="128" rx="24" fill="white"/>
<path d="M110 35.7009L110.153 35.7087C110.91 35.7856 111.5 36.4243 111.5 37.2009V94.0085C111.5 94.4272 111.325 94.8271 111.018 95.1111C110.748 95.3595 110.399 95.4998 110.036 95.5085L109.88 95.5037C109.879 95.5036 109.878 95.5038 109.877 95.5037L109.818 95.4988C109.776 95.4955 109.712 95.4913 109.628 95.4851C109.46 95.4727 109.21 95.4541 108.888 95.4324C108.242 95.3889 107.301 95.3305 106.133 95.2703C103.795 95.1497 100.545 95.0234 96.8975 94.9988C89.5587 94.9493 80.7667 95.3153 74.5332 96.908C72.462 97.4372 71.065 98.1363 70.2109 98.6736C69.7832 98.9427 69.4884 99.1728 69.3115 99.324C69.223 99.3996 69.1638 99.4558 69.1318 99.4871C69.1159 99.5027 69.107 99.5127 69.1045 99.5154C69.1034 99.5165 69.1036 99.5155 69.1055 99.5134C69.1064 99.5124 69.1078 99.5112 69.1094 99.5095C69.1103 99.5085 69.1112 99.5068 69.1123 99.5056L69.0176 99.6023C68.9141 99.6979 68.7973 99.7783 68.6709 99.8416L68.6699 99.8425H68.6689L68.6631 99.8455C68.66 99.847 68.6562 99.8494 68.6523 99.8513L68.543 99.9021C68.4764 99.9318 68.3861 99.9703 68.2734 100.014C68.0481 100.103 67.7313 100.213 67.332 100.322C66.5335 100.54 65.4004 100.75 64 100.75C62.5996 100.75 61.4664 100.54 60.668 100.322C60.2687 100.213 59.9519 100.103 59.7266 100.014C59.6139 99.9703 59.5235 99.9318 59.457 99.9021L59.3477 99.8513C59.3438 99.8494 59.34 99.847 59.3369 99.8455L59.3311 99.8425H59.3301C59.3296 99.8423 59.3292 99.8414 60 98.4998L59.3291 99.8416C59.1608 99.7574 59.0095 99.6427 58.8838 99.5027L58.8857 99.5046L58.8877 99.5056L58.8936 99.5134C58.8896 99.5093 58.8814 99.5001 58.8682 99.4871C58.8362 99.4558 58.777 99.3996 58.6885 99.324C58.5115 99.1727 58.2168 98.9427 57.7891 98.6736C56.935 98.1363 55.538 97.4372 53.4668 96.908C47.2333 95.3153 38.4414 94.9493 31.1025 94.9988C27.4549 95.0234 24.205 95.1497 21.8672 95.2703C20.6987 95.3305 19.7585 95.3889 19.1123 95.4324C18.7896 95.4541 18.5402 95.4727 18.3721 95.4851C18.288 95.4913 18.224 95.4955 18.1816 95.4988L18.123 95.5037H18.1201C17.7028 95.5371 17.2901 95.395 16.9824 95.1111C16.6748 94.8271 16.5 94.4272 16.5 94.0085V37.2009C16.5 36.3725 17.1716 35.701 18 35.7009H110Z" fill="#222F36" stroke="#222F36" stroke-width="3" stroke-linejoin="round"/>
<path d="M85.9229 27.3145C94.2171 26.6705 99.803 27.1177 103.343 27.7412C105.113 28.053 106.371 28.4089 107.201 28.6943C107.616 28.837 107.923 28.9626 108.134 29.0557C108.239 29.1022 108.32 29.1403 108.378 29.1689C108.407 29.1833 108.43 29.1959 108.447 29.2051C108.456 29.2097 108.464 29.2136 108.47 29.2168C108.473 29.2183 108.475 29.2195 108.478 29.2207C108.479 29.2213 108.48 29.2221 108.48 29.2227L108.482 29.2236C108.481 29.2278 108.451 29.2839 108 30.0996L108.483 29.2236C108.802 29.3996 109 29.7355 109 30.0996V89.8701C109 90.2238 108.813 90.5516 108.509 90.7314C108.206 90.9102 107.831 90.9159 107.522 90.748L107.52 90.7471C107.515 90.7447 107.505 90.7391 107.489 90.7314C107.458 90.7158 107.403 90.6899 107.325 90.6553C107.168 90.5857 106.913 90.4811 106.551 90.3564C105.826 90.1071 104.669 89.7763 102.995 89.4814C99.6474 88.8917 94.2327 88.4459 86.0771 89.0791C77.9805 89.7077 72.6146 91.652 69.2988 93.4043C67.6397 94.2811 66.4883 95.1123 65.7617 95.7129C65.3984 96.0132 65.1407 96.2566 64.9785 96.4189C64.8974 96.5001 64.8394 96.5616 64.8047 96.5996C64.7876 96.6184 64.7757 96.6316 64.7695 96.6387L64.7666 96.6406V96.6426C64.7666 96.6425 64.7665 96.6424 64.7656 96.6416L64.7646 96.6445C64.5747 96.8699 64.2949 97 64 97C63.7037 97 63.4224 96.8689 63.2324 96.6416V96.6406C63.2319 96.64 63.2311 96.6394 63.2305 96.6387C63.2243 96.6316 63.2125 96.6184 63.1953 96.5996C63.1606 96.5616 63.1026 96.5001 63.0215 96.4189C62.8593 96.2566 62.6015 96.0132 62.2383 95.7129C61.5117 95.1123 60.3603 94.2811 58.7012 93.4043C55.3854 91.652 50.0195 89.7077 41.9229 89.0791C33.7672 88.4459 28.3526 88.8917 25.0049 89.4814C23.3313 89.7763 22.1741 90.1071 21.4492 90.3564C21.0869 90.4811 20.8322 90.5857 20.6748 90.6553C20.5965 90.6899 20.5422 90.7158 20.5107 90.7314C20.4952 90.7392 20.485 90.7447 20.4805 90.7471C20.4783 90.7482 20.4771 90.7483 20.4775 90.748L20.4814 90.7461H20.4824L20.4814 90.7451C20.1721 90.9153 19.7964 90.9107 19.4922 90.7314C19.1875 90.5517 19.0001 90.2239 19 89.8701V30.0996C19 29.7355 19.1979 29.3996 19.5166 29.2236L20 30.0996C19.5482 29.2816 19.5189 29.2275 19.5176 29.2236L19.5195 29.2227C19.5205 29.2221 19.5214 29.2213 19.5225 29.2207C19.5247 29.2195 19.5274 29.2183 19.5303 29.2168C19.5363 29.2136 19.544 29.2097 19.5527 29.2051C19.5703 29.1959 19.5932 29.1833 19.6221 29.1689C19.6799 29.1403 19.761 29.1022 19.8662 29.0557C20.0766 28.9626 20.3839 28.8371 20.7988 28.6943C21.6287 28.4089 22.888 28.053 24.6582 27.7412C28.198 27.1177 33.7834 26.6706 42.0771 27.3145C50.4301 27.9629 56.0641 29.9777 59.6357 31.8652C61.42 32.8082 62.6846 33.7169 63.5127 34.4014C63.6963 34.5531 63.8585 34.6937 64 34.8213C64.1415 34.6937 64.3037 34.5531 64.4873 34.4014C65.3154 33.7169 66.5799 32.8082 68.3643 31.8652C71.9359 29.9777 77.5698 27.9629 85.9229 27.3145Z" stroke="#222F36" stroke-width="2" stroke-linejoin="round"/>
<path d="M85.0001 87.5001H99.5001V109L92.2501 105L85.0001 109V87.5001Z" fill="#6AAE6F" stroke="#6AAE6F" stroke-width="4" stroke-linejoin="round"/>
<path d="M87.2582 92.1652C100.524 90.8547 105 94 105 94V85H80.0001V93.6124C82.0558 92.9623 84.4617 92.4415 87.2582 92.1652Z" fill="#222F36" fill-opacity="0.63"/>
<path d="M20 30.0993V89.8698C20 89.8698 25.55 86.8047 42 88.0818C58.4501 89.3589 64.0001 96.0001 64.0001 96.0001C64.0001 96.0001 69.55 89.3589 86.0001 88.0818C102.45 86.8047 108 89.8698 108 89.8698V30.0993C108 30.0993 102.45 27.0342 86.0001 28.3113C69.55 29.5884 64.0001 36.2296 64.0001 36.2296C64.0001 36.2296 58.4501 29.5884 42 28.3113C25.55 27.0342 20 30.0993 20 30.0993Z" fill="white"/>
<path d="M48.2501 50.25L36.5 60.25L48.2501 70.25" stroke="#6AAE6F" stroke-width="4" stroke-linecap="round" stroke-linejoin="round"/>
<path d="M79.7501 70.25L91.5001 60.25L79.7501 50.25" stroke="#6AAE6F" stroke-width="4" stroke-linecap="round" stroke-linejoin="round"/>
<path d="M70.0001 45.5L57.7501 75.7501" stroke="#6AAE6F" stroke-width="4" stroke-linecap="round" stroke-linejoin="round"/>
</svg>
