<svg width="128" height="128" viewBox="0 0 128 128" fill="none" xmlns="http://www.w3.org/2000/svg">
<rect width="128" height="128" fill="white"/>
<path d="M30.4063 47.4062L14 64.2031L30.4063 81" stroke="#232323" stroke-width="8" stroke-linecap="round" stroke-linejoin="round"/>
<path d="M97.5937 81L114 64.2031L97.5938 47.4062" stroke="#232323" stroke-width="8" stroke-linecap="round" stroke-linejoin="round"/>
<path d="M48.1077 101.962C43.9821 95.6603 46.1745 86.6059 48.8811 80.306L72.0805 86.6059C72.0805 92.9059 70.9277 101.012 64.734 105.112C57.0009 110.231 50.4277 105.506 48.1077 101.962Z" fill="#6AAE6F"/>
<path d="M49.6544 37.3874C47.17 45.8206 47.7211 59.0436 49.2677 66.131C66.0575 66.131 59.7075 64.1818 74.4005 74.006C78.2671 68.0997 78.3985 66.131 80.8667 57.6543C83.937 47.1099 81.3603 32.2687 75.9471 25.575C72.2793 21.0396 64.4129 19.4188 59.7075 22.8188C53.9076 27.0096 50.8144 33.45 49.6544 37.3874Z" fill="#6AAE6F"/>
</svg>
