<svg width="196" height="168" viewBox="0 0 196 168" fill="none" xmlns="http://www.w3.org/2000/svg">
<path d="M190 19.4019C191.657 19.4021 192.999 20.7452 192.999 22.4019L193 136.017C193 136.854 192.649 137.654 192.034 138.222C191.419 138.79 190.594 139.075 189.76 139.008H189.759C189.758 139.008 189.756 139.008 189.754 139.007C189.749 139.007 189.741 139.006 189.73 139.005C189.71 139.004 189.678 139.002 189.636 138.999C189.551 138.992 189.424 138.982 189.256 138.969C188.92 138.944 188.42 138.909 187.774 138.866C186.482 138.779 184.603 138.661 182.266 138.541C177.59 138.299 171.089 138.046 163.794 137.997C149.116 137.898 131.533 138.631 119.066 141.816C114.924 142.874 112.131 144.272 110.423 145.346C109.567 145.885 108.978 146.346 108.624 146.649C108.447 146.8 108.329 146.911 108.265 146.974L108.211 147.028C108.213 147.026 108.216 147.022 108.22 147.018C108.221 147.016 108.224 147.014 108.226 147.012C108.227 147.011 108.227 147.01 108.229 147.008L108.23 147.006C108.231 147.006 108.23 147.006 108.229 147.005C107.978 147.285 107.678 147.515 107.342 147.683L106 145L107.34 147.684L107.334 147.687C107.331 147.688 107.328 147.689 107.325 147.691C107.319 147.694 107.312 147.698 107.305 147.702C107.289 147.709 107.27 147.718 107.249 147.728C107.206 147.748 107.151 147.774 107.085 147.803C106.952 147.863 106.771 147.94 106.546 148.028C106.095 148.204 105.462 148.426 104.664 148.644C103.067 149.08 100.801 149.5 98 149.5C95.1992 149.5 92.9329 149.08 91.3359 148.644C90.5375 148.426 89.9048 148.204 89.4541 148.028C89.2287 147.94 89.0481 147.863 88.915 147.803C88.8486 147.774 88.7938 147.748 88.751 147.728C88.7296 147.718 88.7107 147.709 88.6953 147.702C88.6876 147.698 88.681 147.694 88.6748 147.691C88.6717 147.689 88.6687 147.688 88.666 147.687L88.6602 147.684L90 145L88.6582 147.683C88.4056 147.557 88.1727 147.395 87.9658 147.205L87.7715 147.008C87.7726 147.01 87.7734 147.011 87.7744 147.012C87.7764 147.014 87.7786 147.016 87.7803 147.018C87.7834 147.021 87.7862 147.025 87.7881 147.027C87.7804 147.019 87.7636 147.001 87.7363 146.974C87.6725 146.912 87.5531 146.8 87.376 146.649C87.022 146.346 86.4331 145.885 85.5771 145.346C83.869 144.272 81.0757 142.874 76.9336 141.816C64.4666 138.63 46.8827 137.898 32.2051 137.997C24.9099 138.046 18.41 138.299 13.7344 138.541C11.3974 138.661 9.51792 138.779 8.22559 138.866C7.57972 138.909 7.08048 138.944 6.74414 138.969C6.57597 138.982 6.44793 138.992 6.36328 138.999C6.3211 139.002 6.2892 139.004 6.26855 139.005C6.25837 139.006 6.25088 139.007 6.24609 139.007C6.24386 139.008 6.24226 139.008 6.24121 139.008H6.24023C5.40557 139.075 4.58016 138.79 3.96484 138.222C3.34963 137.654 3 136.854 3 136.017V22.4019C3 20.7451 4.34326 19.402 6 19.4019H190Z" fill="#222F36" stroke="#222F36" stroke-width="6" stroke-linejoin="round"/>
<path d="M99.5332 141.284C99.5348 141.282 99.5367 141.28 99.5391 141.277C99.5515 141.263 99.5757 141.236 99.6104 141.198C99.6797 141.122 99.794 141 99.9561 140.838C100.28 140.513 100.796 140.027 101.522 139.426C102.976 138.225 105.278 136.561 108.597 134.808C115.228 131.303 125.961 127.414 142.155 126.157C158.466 124.891 169.295 125.783 175.99 126.963C179.337 127.552 181.651 128.214 183.101 128.713C183.825 128.962 184.336 129.171 184.65 129.311C184.807 129.38 184.917 129.432 184.979 129.463C185.011 129.478 185.03 129.489 185.039 129.494L185.045 129.496C185.662 129.832 186.411 129.819 187.017 129.462C187.626 129.102 188 128.447 188 127.739V8.19824C188 7.47028 187.604 6.80021 186.967 6.44824L186 8.19824C186.967 6.44777 186.965 6.44701 186.964 6.44629L186.962 6.44531C186.96 6.44424 186.957 6.44266 186.955 6.44141C186.951 6.43891 186.945 6.4358 186.939 6.43262C186.927 6.42616 186.912 6.41838 186.895 6.40918C186.86 6.39085 186.813 6.36737 186.756 6.33887C186.64 6.28152 186.478 6.20435 186.268 6.11133C185.847 5.92528 185.232 5.67505 184.402 5.38965C182.743 4.81873 180.225 4.10705 176.685 3.4834C169.605 2.23629 158.433 1.34105 141.845 2.62891C125.139 3.92594 113.871 7.95543 106.728 11.7305C103.159 13.6163 100.631 15.4338 98.9746 16.8027C98.6072 17.1065 98.283 17.3883 98 17.6436C97.717 17.3883 97.3928 17.1065 97.0254 16.8027C95.3693 15.4338 92.8409 13.6163 89.2725 11.7305C82.1292 7.95543 70.8613 3.92594 54.1553 2.62891C37.5667 1.34105 26.395 2.23629 19.3154 3.4834C15.7751 4.10705 13.2573 4.81873 11.5977 5.38965C10.768 5.67505 10.1531 5.92528 9.73242 6.11133C9.52207 6.20435 9.35984 6.28152 9.24414 6.33887C9.18664 6.36737 9.14047 6.39085 9.10547 6.40918C9.0879 6.41838 9.07255 6.42616 9.06055 6.43262C9.05463 6.4358 9.0495 6.43891 9.04492 6.44141C9.04262 6.44266 9.04005 6.44423 9.03809 6.44531L9.03613 6.44629C9.03482 6.44701 9.03326 6.44777 10 8.19824L9.0332 6.44824C8.39597 6.80021 8.00013 7.47028 8 8.19824V127.739C8 128.447 8.37393 129.102 8.9834 129.462C9.55498 129.799 10.2539 129.829 10.8496 129.55L10.9551 129.496C10.9544 129.496 10.9568 129.496 10.9609 129.494C10.9699 129.489 10.9894 129.478 11.0205 129.463C11.0834 129.432 11.1925 129.38 11.3496 129.311C11.6644 129.171 12.1745 128.962 12.8994 128.713C14.3491 128.214 16.6629 127.552 20.0098 126.963C26.7052 125.783 37.5338 124.891 53.8447 126.157C70.0385 127.414 80.7717 131.303 87.4033 134.808C90.722 136.561 93.0243 138.225 94.4775 139.426C95.2044 140.027 95.7196 140.513 96.0439 140.838C96.206 141 96.3203 141.122 96.3896 141.198C96.4243 141.236 96.4485 141.263 96.4609 141.277C96.4631 141.28 96.4643 141.282 96.4658 141.284L96.4668 141.283C96.8468 141.737 97.4079 142 98 142C98.5919 142 99.1522 141.737 99.5322 141.283L99.5332 141.284ZM99.5332 141.284L99.5322 141.286L99.5293 141.289L99.5332 141.284Z" stroke="#222F36" stroke-width="4" stroke-linejoin="round"/>
<path d="M140 123H169V166L154.5 158L140 166V123Z" fill="#6AAE6F" stroke="#6AAE6F" stroke-width="4" stroke-linejoin="round"/>
<path d="M144.516 132.33C171.048 129.709 180 136 180 136V118H130V135.225C134.111 133.925 138.923 132.883 144.516 132.33Z" fill="#222F36" fill-opacity="0.63"/>
<path d="M10 8.1986V127.739C10 127.739 21.0999 121.609 54 124.163C86.9001 126.718 98 140 98 140C98 140 109.1 126.718 142 124.163C174.9 121.609 186 127.739 186 127.739V8.1986C186 8.1986 174.9 2.06839 142 4.6226C109.1 7.1768 98 20.4592 98 20.4592C98 20.4592 86.9001 7.1768 54 4.6226C21.0999 2.06839 10 8.1986 10 8.1986Z" fill="white"/>
<path d="M66.5001 48.5L43 68.5L66.5001 88.5" stroke="#6AAE6F" stroke-width="10" stroke-linecap="round" stroke-linejoin="round"/>
<path d="M129.5 88.5L153 68.5L129.5 48.5" stroke="#6AAE6F" stroke-width="10" stroke-linecap="round" stroke-linejoin="round"/>
<path d="M110 39L85.5 99.5" stroke="#6AAE6F" stroke-width="10" stroke-linecap="round" stroke-linejoin="round"/>
</svg>
